<svg xmlns="http://www.w3.org/2000/svg" xmlns:xlink="http://www.w3.org/1999/xlink" width="140" height="140" viewBox="0 0 140 140">
    <defs>
        <path id="a" d="M91.958 114h-24.89L56.215 96.033H34.527L22 75.303 34.527 54.55h24.901l10.898 17.973h21.626L104.57 93.27 91.958 114z"/>
    </defs>
    <g fill="none" fill-rule="evenodd">
        <circle cx="70" cy="70" r="70" fill="#FF9000" fill-rule="nonzero"/>
        <use fill="#FFF" fill-rule="nonzero" opacity=".5" xlink:href="#a"/>
        <path fill="#FFF" fill-rule="nonzero" d="M96.066 108.284h-24.67L59 87.648 71.397 67h24.669l12.475 20.642z"/>
        <path fill="#FFF" d="M93.985 56.34l6.772-.885c.317-2.298.33-4.52 0-6.91l-6.772-.885a18.364 18.364 0 0 0-2.197-5.301l4.165-5.419a25.145 25.145 0 0 0-4.884-4.885l-5.418 4.164a18.396 18.396 0 0 0-5.306-2.203l-.886-6.772a24.662 24.662 0 0 0-6.907-.002l-.886 6.77a18.383 18.383 0 0 0-5.314 2.2l-5.418-4.165a25.382 25.382 0 0 0-4.884 4.88l4.164 5.418a18.38 18.38 0 0 0-2.206 5.317l-6.772.886a25.33 25.33 0 0 0 0 6.904l6.772.885a18.373 18.373 0 0 0 2.206 5.317l-4.164 5.417c1.339 1.768 3 3.456 4.884 4.881l5.419-4.164a18.396 18.396 0 0 0 5.314 2.2l.886 6.77c2.334.322 4.554.324 6.907-.002l.886-6.772a18.38 18.38 0 0 0 5.306-2.203l5.418 4.164a25.145 25.145 0 0 0 4.883-4.885l-4.165-5.419a18.395 18.395 0 0 0 2.197-5.3z"/>
        <circle cx="75.5" cy="51.5" r="10.5" fill="#FF9000" fill-rule="nonzero"/>
    </g>
</svg>
