<?xml version="1.0" encoding="UTF-8"?>
<svg width="40px" height="40px" viewBox="0 0 40 40" version="1.1" xmlns="http://www.w3.org/2000/svg" xmlns:xlink="http://www.w3.org/1999/xlink">
    <!-- Generator: Sketch 46.2 (44496) - http://www.bohemiancoding.com/sketch -->
    <title>Area-chart</title>
    <desc>Created with Sketch.</desc>
    <defs>
        <linearGradient x1="50%" y1="0%" x2="50%" y2="100%" id="linearGradient-1">
            <stop stop-color="#868F99" stop-opacity="0.625311368" offset="0%"></stop>
            <stop stop-color="#868F99" stop-opacity="0" offset="100%"></stop>
        </linearGradient>
    </defs>
    <g id="Page-1" stroke="none" stroke-width="1" fill="none" fill-rule="evenodd">
        <g id="Iconography" transform="translate(-409.000000, -360.000000)">
            <g id="Area-chart" transform="translate(409.000000, 360.000000)">
                <polyline id="Path-21" fill="url(#linearGradient-1)" points="1 14 13 24 26 14 38 25 38 38.0384048 1.98715972 38.0384048"></polyline>
                <g id="Group-10-Copy" fill-rule="nonzero" fill="#868F99">
                    <path d="M0,38.0952381 C0,39.1472086 0.852791077,40 1.9047619,40 L39,40 C39.5522847,40 40,39.5522847 40,39 C40,38.4477153 39.5522847,38 39,38 L1.9047619,38 C1.95736073,38 2,38.0426393 2,38.0952381 L2,1 C2,0.44771525 1.55228475,0 1,0 C0.44771525,0 0,0.44771525 0,1 L0,38.0952381 Z" id="Shape"></path>
                    <path d="M12.6994449,25.2750999 C13.0768448,25.6066272 13.6416199,25.6067234 14.0191326,25.2753246 L26.3870433,14.4181818 L25.0676116,14.4181818 L37.4355222,25.2753246 C37.8505726,25.6396757 38.4824022,25.5985757 38.8467532,25.1835254 C39.2111042,24.7684751 39.1700043,24.1366454 38.754954,23.7722944 L26.3870433,12.9151516 C26.009628,12.5838384 25.4450269,12.5838384 25.0676116,12.9151516 L12.6997009,23.7722944 L14.0193886,23.7725192 L1.65997182,12.9153763 C1.24504561,12.5508839 0.613202013,12.5917686 0.248709643,13.0066948 C-0.115782727,13.4216211 -0.0748980239,14.0534647 0.340028183,14.417957 L12.6994449,25.2750999 Z" id="Shape"></path>
                </g>
            </g>
        </g>
    </g>
</svg>