<svg xmlns="http://www.w3.org/2000/svg" width="24" height="24" viewBox="0 0 24 24">
    <g fill="none" fill-rule="evenodd" stroke="currentColor">
        <path stroke-width="1.2" d="M21.102 9.301c-1.15-3.903-4.832-6.758-9.148-6.758-4.315 0-7.952 2.855-9.102 6.758"/>
        <path stroke-width="1.2" d="M22.413 5.961l-1.31 3.34-3.257-1.251M2.88 14.563c1.15 3.903 4.832 6.758 9.148 6.758s7.952-2.855 9.102-6.758"/>
        <path stroke-width="1.2" d="M1.57 17.903l1.31-3.34 3.256 1.251"/>
        <path stroke-width="1.123" d="M16.795 14.02c-1.45-.622-3.057-1.394-3.193-1.876v-.505c.3-.341.538-.818.678-1.376.337-.263.421-.805.142-1.187v-1.13c0-1.168-.585-1.967-1.922-1.967-1.302 0-1.922.8-1.922 1.967v1.13c-.28.382-.194.924.141 1.187.14.558.378 1.035.679 1.376v.505c-.135.481-1.744 1.254-3.193 1.877a.361.361 0 0 0-.205.336v1.263c0 .198.143.36.319.36h8.362c.176 0 .319-.162.319-.36v-1.263a.36.36 0 0 0-.205-.336z"/>
    </g>
</svg>
