<svg xmlns="http://www.w3.org/2000/svg" width="24" height="24" viewBox="0 0 24 24">
    <path fill="currentColor" fill-rule="nonzero" d="M23.236 12l.616 1.072c-3.367 3.056-6.579 7.341-7.345 9.481 0 .154-.152.154-.152.154h-.157L11 17.66c0-.15 1.53-1.374 1.53-1.374l2.907 2.139c1.068-1.377 4.13-4.13 7.799-6.425zm-3.484-8.75c.689.002 1.247.56 1.248 1.25l.037 7.888-1.224 1.013-.064-8.901h-3.125v1.875a.625.625 0 1 1-1.25.001V4.5h-8.75v1.875a.625.625 0 1 1-1.25.001V4.5H2.25v16.25l10.517-.11 1.217 1.244L2.25 22c-.69 0-1.249-.56-1.25-1.25V4.5c.001-.69.56-1.249 1.25-1.25h3.125v-.625a.625.625 0 1 1 1.25 0v.625h8.75v-.625a.625.625 0 0 1 1.25 0v.625h3.127zM6.135 10.125h.98c.42 0 .76.34.76.76v.98c0 .42-.34.76-.76.76h-.98a.76.76 0 0 1-.76-.76v-.98c0-.42.34-.76.76-.76zm4.375 0h.98c.42 0 .76.34.76.76v.98c0 .42-.34.76-.76.76h-.98a.76.76 0 0 1-.76-.76v-.98c0-.42.34-.76.76-.76zm4.375 0h.98c.42 0 .76.34.76.76v.98c0 .42-.34.76-.76.76h-.98a.76.76 0 0 1-.76-.76v-.98c0-.42.34-.76.76-.76zM6.135 14.5h.98c.42 0 .76.34.76.76v.98c0 .42-.34.76-.76.76h-.98a.76.76 0 0 1-.76-.76v-.98c0-.42.34-.76.76-.76z"/>
</svg>
