<svg xmlns="http://www.w3.org/2000/svg" width="24" height="23" viewBox="0 0 24 23">
    <g fill="none" fill-rule="evenodd" stroke="currentColor" stroke-width="1.2" transform="translate(3.84)">
        <path d="M18.643 14.677l-4.538-4.487a.33.33 0 0 0-.234-.095h-.241l-3.434.017a.332.332 0 0 0-.33.333c.001.225-.043 3.742.116 3.901.072.072 4.543 4.51 4.636 4.55a.33.33 0 0 0 .225.02.397.397 0 0 0 .145-.086l3.657-3.685a.33.33 0 0 0-.002-.468z"/>
        <ellipse cx="11.858" cy="12.15" rx="1" ry="1"/>
        <path d="M14.893 20.674v1.887H.505V5.323h14.388v2.69"/>
        <path d="M11.027 7.21V4.015c0-1.856-1.416-3.536-3.275-3.536h-.058c-1.86 0-3.387 1.68-3.387 3.536V7.21"/>
    </g>
</svg>
