<svg xmlns="http://www.w3.org/2000/svg" width="24" height="24" viewBox="0 0 24 24">
    <g fill="none" fill-rule="evenodd" stroke="currentColor" stroke-width="1.2">
        <path d="M23.31 13.508c0-6.36-5.233-11.468-11.535-11.067C6.48 2.778 2.128 7.11 1.67 12.519a11.265 11.265 0 0 0 1.605 6.867A2.565 2.565 0 0 0 5.466 20.6h14.005a2.57 2.57 0 0 0 2.195-1.22 11.221 11.221 0 0 0 1.644-5.873zM4.8 13.861h-.839M6.871 8.138l-.632-.647M12.454 5.579v-.822M18.207 8.138l.621-.636M20.084 13.862h.874"/>
        <path d="M11.343 17.25a1.546 1.546 0 0 0 2.22 0 1.633 1.633 0 0 0 0-2.273 1.546 1.546 0 0 0-2.22 0 1.632 1.632 0 0 0 0 2.272zM11.343 14.977L6.94 10.474"/>
    </g>
</svg>
