<svg xmlns="http://www.w3.org/2000/svg" width="24" height="24" viewBox="0 0 24 24">
    <g fill="none" fill-rule="evenodd" stroke="currentColor" stroke-width="1.2">
        <path d="M13.504.51v4h4"/>
        <path d="M17.504 21.523v1.187c0 .436-.354.8-.791.8H1.292a.796.796 0 0 1-.788-.8V1.315A.8.8 0 0 1 1.292.51h12.212c.208 0 .305.09.452.235l3.313 3.268c.15.149.235.285.235.497v2.064M4.437 13.464h6.011M4.437 16.494h6.011M4.437 10.435h6.011"/>
        <path d="M23.298 17.44c-1.621-.665-3.421-1.49-3.573-2.004v-.54c.337-.365.602-.874.76-1.47.376-.28.47-.86.158-1.268v-1.207c0-1.247-.655-2.1-2.151-2.1-1.458 0-2.152.853-2.152 2.1v1.208a.909.909 0 0 0 .159 1.267c.157.596.422 1.105.759 1.47v.54c-.15.513-1.951 1.339-3.573 2.004a.385.385 0 0 0-.23.359v1.35c0 .211.16.383.357.383h9.36c.196 0 .356-.172.356-.384v-1.35a.384.384 0 0 0-.23-.358z"/>
    </g>
</svg>
