<svg xmlns="http://www.w3.org/2000/svg">
  <defs>
    <svg id="area-chart-col" xmlns="http://www.w3.org/2000/svg" width="60" height="60" viewBox="0 0 60 60">
      <g fill="none" fill-rule="nonzero">
        <path fill="#26D990" d="M0 14l18.15 23.375 8.28-12.586 10.158 7.602L60 14v46H0V14z"/>
        <path fill="#C6C6C6" d="M.547 59.222H60v1H0V60.2h-.453V.2h1v59.022z"/>
      </g>
    </svg>

    <svg id="bar-chart-col" xmlns="http://www.w3.org/2000/svg" width="60" height="60" viewBox="0 0 60 60">
      <g fill="none" fill-rule="nonzero">
        <path fill="#6EB0E8" d="M40.4 48.214V53H8v-4.786h32.4zM20.96 33.143v4.786H8v-4.786h12.96zm2.16 7.536v4.785H8V40.68h15.12z"/>
        <path fill="#FBCA8D" d="M31.76 10v4.786H8V10z"/>
        <path fill="#6EB0E8" d="M23.12 3v4.786H8V3zM8 29.786V25h31.32v4.786zM8 22.786V18h48v4.786z"/>
        <path fill="#C6C6C6" d="M1 59.022h59.453v1h-60V60H0V0h1v59.022z"/>
      </g>
    </svg>

    <svg id="bubble-chart-col" xmlns="http://www.w3.org/2000/svg" width="60" height="60" viewBox="0 0 60 60">
      <g fill="none" fill-rule="nonzero">
        <path fill="#F59736" d="M31.5 30a4.5 4.5 0 1 1 0-9 4.5 4.5 0 0 1 0 9zm16-4a9.5 9.5 0 1 1 0-19 9.5 9.5 0 0 1 0 19zm-4 11a4.5 4.5 0 1 1 0-9 4.5 4.5 0 0 1 0 9zm-14 11a4.5 4.5 0 1 1 0-9 4.5 4.5 0 0 1 0 9z"/>
        <path fill="#C6C6C6" d="M1 59.022h59.453v1h-60V60H0V0h1v59.022z"/>
        <path fill="#A1DEC5" d="M35 42a3 3 0 1 1 0-6 3 3 0 0 1 0 6zm-21 7a3 3 0 1 1 0-6 3 3 0 0 1 0 6zm6-10a7 7 0 1 1 0-14 7 7 0 0 1 0 14zm18-17a3 3 0 1 1 0-6 3 3 0 0 1 0 6z"/>
      </g>
    </svg>

    <svg id="column-chart-col" xmlns="http://www.w3.org/2000/svg" width="60" height="60" viewBox="0 0 60 60">
      <g fill="none" fill-rule="nonzero">
        <path fill="#8AB7E1" d="M52 23.818h5V48h-5zM7 20h5v28H7z"/>
        <path fill="#FBCA8D" d="M14.5 30.182h5V48h-5z"/>
        <path fill="#8AB7E1" d="M22 23.818h5V48h-5zM29.5 31.455h5V48h-5zM37 32.727h5V48h-5zM44.5 30.182h5V48h-5z"/>
        <path fill="#C6C6C6" d="M1 59.022h59.453v1h-60V60H0V0h1v59.022z"/>
      </g>
    </svg>

    <svg id="combo-chart-col" xmlns="http://www.w3.org/2000/svg" width="60" height="60" viewBox="0 0 60 60">
      <g fill="none" fill-rule="nonzero">
        <path fill="#E6A452" d="M46 32h4v19h-4V32zm-36-3h4v22h-4V29zm6 8h4v14h-4V37zm6-5h4v19h-4V32zm6 6h4v13h-4V38zm6 1h4v12h-4V39zm6-2h4v14h-4V37zM4 38h4v13H4V38zm48-6h4v19h-4V32z"/>
        <path fill="#C6C6C6" d="M1 59.022h59.453v1h-60V60H0V0h1v59.022z"/>
        <path fill="#4596B4" d="M33.9 22.454a5 5 0 1 1-9.725.981l-9.61-6.79A4.983 4.983 0 0 1 11.143 18a4.98 4.98 0 0 1-3.168-1.132l-6.879 7L0 22.333l6.673-7.09a5 5 0 1 1 9.205-.632l8.896 6.956a4.999 4.999 0 0 1 7.791-1.213L42.142 9a5 5 0 1 1 8.046-.059l10.39 14.764-1.602 1.381L48.71 10.291c-.75.45-1.628.709-2.567.709-.716 0-1.397-.15-2.013-.422L33.9 22.454z"/>
      </g>
    </svg>

    <svg id="line-chart-col" xmlns="http://www.w3.org/2000/svg" width="60" height="60" viewBox="0 0 60 60">
      <g fill="none" fill-rule="nonzero">
        <path fill="#79B5EE" d="M0 38.968l16.535-17.126 14.093 13.136L45.254 7l15.239 33.03-4.287.084-11.337-24.716-13.112 25.418-15.174-13.465L-.01 44.502z"/>
        <path fill="#26D990" d="M0 42.968l16.535-17.126 14.093 13.136L45.254 11l15.239 33.03-4.287.084-11.337-24.716-13.112 25.418-15.174-13.465L-.01 48.502z"/>
        <path fill="#FBCA8D" d="M0 45.968l16.535-17.126 14.093 13.136L45.254 14l15.239 33.03-4.287.084-11.337-24.716-13.112 25.418-15.174-13.465L-.01 51.502z"/>
        <path fill="#C6C6C6" d="M.547 59.222H60v1H0V60.2h-.453V.2h1v59.022z"/>
      </g>
    </svg>

    <svg id="pie-chart-col" xmlns="http://www.w3.org/2000/svg" width="60" height="60" viewBox="0 0 60 60">
      <g fill="none" fill-rule="nonzero">
        <path fill="#26D990" d="M26.5 57C40.031 57 51 45.96 51 32.34c-6 .251-14.117.713-24.352 1.386 3.331-11.066 5.86-19.384 7.586-24.956C14.482 4.506 2 18.722 2 32.34 2 45.96 12.969 57 26.5 57z"/>
        <path fill="#F96657" d="M32.094 29.983l8.68-27.08c5.069 1.42 9.092 4.244 12.07 8.472 2.978 4.227 4.685 9.593 5.12 16.096l-25.87 2.512z"/>
      </g>
    </svg>

    <svg id="scatter-chart-col" xmlns="http://www.w3.org/2000/svg" width="60" height="60" viewBox="0 0 60 60">
      <g fill="none" fill-rule="nonzero">
        <path fill="#0077BE" d="M32 18.467a2.146 2.146 0 0 1-2.143-2.15c0-1.188.96-2.15 2.143-2.15 1.183 0 2.143.962 2.143 2.15 0 1.187-.96 2.15-2.143 2.15zM54.857 15.6a2.146 2.146 0 0 1-2.143-2.15c0-1.187.96-2.15 2.143-2.15 1.184 0 2.143.963 2.143 2.15 0 1.187-.96 2.15-2.143 2.15zm-5.714 12.9A2.146 2.146 0 0 1 47 26.35c0-1.187.96-2.15 2.143-2.15 1.183 0 2.143.963 2.143 2.15 0 1.187-.96 2.15-2.143 2.15zM12 38.533a2.146 2.146 0 0 1-2.143-2.15c0-1.187.96-2.15 2.143-2.15 1.183 0 2.143.963 2.143 2.15 0 1.188-.96 2.15-2.143 2.15zm17.143 5.734A2.146 2.146 0 0 1 27 42.117c0-1.188.96-2.15 2.143-2.15 1.183 0 2.143.962 2.143 2.15 0 1.187-.96 2.15-2.143 2.15zM9.143 50A2.146 2.146 0 0 1 7 47.85c0-1.187.96-2.15 2.143-2.15 1.183 0 2.143.963 2.143 2.15 0 1.187-.96 2.15-2.143 2.15z"/>
        <ellipse cx="32" cy="27.783" fill="#F96657" rx="2.143" ry="2.15"/>
        <ellipse cx="39.143" cy="37.817" fill="#F96657" rx="2.143" ry="2.15"/>
        <ellipse cx="14.857" cy="24.917" fill="#F96657" rx="2.143" ry="2.15"/>
        <ellipse cx="43.429" cy="9.15" fill="#F96657" rx="2.143" ry="2.15"/>
        <path fill="#C6C6C6" d="M1 59.022h59.453v1h-60V60H0V0h1v59.022z"/>
      </g>
    </svg>

    <svg id="time-series-chart-col" xmlns="http://www.w3.org/2000/svg" width="60" height="60" viewBox="0 0 60 60">
      <g fill="none" fill-rule="evenodd">
        <path fill="#F4A79F" fill-rule="nonzero" d="M28.23 26.78l5.515-11.665 5.51 10.65 5.718-22.684 5.958 26.78-1.676.07-4.432-20.04L39.697 30.5l-5.933-10.918-4.867 10.196.019.084-.06.002-.217.454-.884.79-.37-.697-.11-.482-.035.001-4.433-20.04-5.126 20.61-5.932-10.918-6.487 13.906.003-4.487 6.465-13.886 5.51 10.65 5.718-22.684 5.272 23.7z"/>
        <path fill="#4596B4" fill-rule="nonzero" d="M33.473 2.213l.089-.135.146.327.188.154-.074.101 11.54 25.778 6.5-2.291.314.763-7.105 2.406L33.349 3.313l-15.3 21.071-2.082-4.224-9.89 7.653.03-.93 9.935-7.754 2.1 3.74L33.355 2.118l.118.096z"/>
        <path fill="#C6C6C6" fill-rule="nonzero" d="M3.259 34.883h13.28c4.458-2.597 7.89-3.895 10.299-3.895 2.407 0 5.962 1.298 10.662 3.895h14.238v.81H38.074c-5.242-3.097-9.12-4.646-11.636-4.646-2.515 0-6.122 1.549-10.822 4.647H3.259v.119h-.81V6.89h.81v27.993z"/>
        <g transform="translate(12 30)">
          <circle cx="15" cy="15.001" r="14.066" fill="#F59736"/>
          <path stroke="#FFF" stroke-width="1.25" d="M8.255 8.384l7.158 7.111 4.35-2.486"/>
          <circle cx="25.268" cy="14.809" r="1.015" fill="#FFF"/>
          <circle cx="4.732" cy="14.809" r="1.015" fill="#FFF"/>
          <circle cx="14.989" cy="4.587" r="1.015" fill="#FFF"/>
          <circle cx="14.989" cy="25.105" r="1.015" fill="#FFF"/>
        </g>
      </g>
    </svg>

    <svg id="time-series-multi-chart-col" xmlns="http://www.w3.org/2000/svg" width="60" height="60" viewBox="0 0 60 60">
      <g fill="none" fill-rule="nonzero">
        <path fill="#26D990" d="M41.892 39.65h3.643V57h-3.643V39.65zM9.107 36.91h3.643V57H9.107V36.91zm5.464 7.306h3.643V57h-3.643V44.216zm5.464-4.566h3.643V57h-3.643V39.65zM25.5 45.13h3.642V57H25.5V45.129zm5.464.913h3.643V57h-3.643V46.042zm5.464-1.826h3.643V57h-3.643V44.216z"/>
        <path fill="#C6C6C6" d="M.912 30.539h54.143v.913H.413v-.057h-.414V4.074h.913v26.465z"/>
        <path fill="#4596B4" d="M16.818 14.001l11.839 9.283v-4.847h5.464v1.679l10.018-11.91V2h5.464v7.92l9.634 13.725-1.46 1.262-9.533-13.775H44.71L34.12 23.457v4.111h-5.463v-2.346L15.21 15.697h-2.207l-7.937 8.098-.998-1.402 7.285-7.76V6.566h5.465V14z"/>
      </g>
    </svg>

    <svg id="stack-chart-col" xmlns="http://www.w3.org/2000/svg" width="60" height="60" viewBox="0 0 60 60">
      <g fill="none" fill-rule="nonzero">
        <path fill="#82BBEC" d="M39.634 47.002V51.5H9.5v-4.498h30.134zM31.598 4.5v4.498H9.5V4.5h22.098zm-8.036 7.084v4.498H9.5v-4.498h14.062zm15.067 7.083v4.499H9.5v-4.499h29.13zm-16.071 7.2v4.5H9.5v-4.5h13.058zm-1.004 6.967v4.499H9.5v-4.499h12.054zm2.008 7.084v4.498H9.5v-4.498h14.062z"/>
        <path fill="#C6C6C6" d="M1 59.022h59.453v1h-60V60H0V0h1v59.022z"/>
        <path fill="#FBCA8D" d="M39.711 25.954v4.498H25.202v-4.498h14.51zm-1.125.884H26.31v2.249h12.276v-2.25zm10.041-21.92v4.498H34.565V4.918h14.062zm-1.013 1.107H35.337v2.25h12.277v-2.25zm-18.07 27.031v4.499h-5.58v-4.499h5.58zm-1.015.884H25.18v2.25h3.348v-2.25zm31.848 6.058v4.499H26.002v-4.499h34.375zm-1.13 1.107H26.88v2.25h32.366v-2.25zM33.342 11.33v4.498h-7.589V11.33h7.59zm-1.124.884h-5.58v2.249h5.58v-2.25zm22.074 6.705v4.498H40.231v-4.498h14.062zm-1.02 1.107H40.998v2.25h12.277v-2.25zm4.838 27.098v4.498H42.486v-4.498H58.11zm-1.021.884H43.697v2.249H57.09v-2.25z"/>
      </g>
    </svg>

    <svg id="geo-location-col" xmlns="http://www.w3.org/2000/svg" width="60" height="60" viewBox="0 0 60 60">
      <g fill="none" fill-rule="evenodd">
        <path fill="#EE7669" d="M30.534 29.668c-.508-.259-.72-.906-1.492-.75-.524.108-1.714.139-2.098.53-.57.581-1.94 2.97-1.643 3.88.12.37.386.786.54 1.102.196.399 1.504 1.215 2.033 1.035.345-.117.95-.507 1.341-.308.214.109.305.421.454.573.366.373.138 1.273.368 1.741.052.107.189.52.13.64-.187.38-.448.761-.346 1.278.113.578.592 1.046.692 1.653.055.34.225 1.636.519 1.786 1.49.76 2.756-1.223 3.525-2.006.259-.264-.145-1.139.021-1.477.215-.438.658-.755.8-1.19.038-.116-.397-.59-.475-.75-.212-.432 1.089-1.675 1.21-1.675.356-.022.87-1.848.714-2.006-.322-.329-1.286.21-1.665-.176-.784-.8-1.135-2.987-1.773-3.637-.125-.128-1.138-.157-1.34-.199-.4 0-1.16.137-1.515-.044z" opacity=".284"/>
        <path fill="#EE7669" d="M36.57 37.485c-.913.32-1.072 2.258-.464 2.897.066.07.29-.828.337-.929.263-.552.711-1.507.126-1.968zM27.708 22.537c-.795-.262-.109.783-.109 1.139 0 .15-.288.64-.174.752.022.022 1.281-.412.958-.73-.259-.257-.512-.78-.675-1.161zM26.896 23.86c-.138-.468-.419.239-.357.517.079.357.505.317.357-.517z"/>
        <path fill="#CB4638" d="M27.657 25.072c-.065.26.11 1.03-.044 1.186-.445.451-.854-.513-1.127.592-.266 1.08 1.024 1.202 1.604.615.404-.41-.195-.988.78-1.317.547-.185.872.338 1.3.483.46.155.673-.22.997-.11.554.187 1.058.694 1.647.395.279-.141.035-.78.325-.878.232-.078.978.017 1.084-.197.267-.543-1.236-.724-.932-1.032.423-.429 1.215-.837 1.517-1.449.255-.516.118-1.14.26-1.712.047-.193.182-.728.086-.922-.162-.329-1.137-.546-1.495-.636-1.127-.286-1.864-.713-3.055-.11-.258.13-.478 1.12-.672 1.383-.414.558-1.132.516-.694 1.405.045.09-.024.305.044.373.187.19.62-.229.672-.176.215.218-.297.417.346.417.188 0 .547.06.65-.044.071-.071.092-.47.152-.592.04-.083.368-.198.282-.374-.117-.237-.295-.408-.217-.724.039-.157.632-.787.867-.549.278.282-.484.638-.369.988.106.32.813.164.716.659-.206 1.04-2.142.996-2.774 1.317-.111.056-.531-.033-.585.022-.12.121-.002.487-.087.658-.016.032-1.06.318-1.278.33z"/>
        <path fill="#EE7669" d="M35.979 24.004c-.19.387-.956.415-1.122.752-.06.124.4.355.46.415.274.28 1.017 1.225.815 1.842-.104.318-2.643-.01-2.294.7.271.552 1.195.075 1.504.389.226.23-.277 1.326-.026 1.582.936.952.503 3.077 2.37 2.697.763-.155 1.023-.47 1.505-.96.337-.343.078-1.615 1.096-1.27 1.52.515 1.3 1.271 1.911 2.515.144.293.094.782.3.984.207.202.59-1.418.72-1.684.328-.667.918-.882 1.427-1.4.035-.036.133.031.153.052.422.428.316 1.203.714 1.608.471.48 1.259.476 1.708.933.17.026.323.303.51.208.01-.006 0-.18 0-.182 0-.514-.437-1.317-.205-1.79.138-.279.563-.269.816-.44.713-.484 1.296-1.06 1.835-1.608.37-.377-.061-1.567-.331-1.841-.01-.01-.092-.166-.051-.208.407-.414 1.205.694 1.376.519.184-.188-.131-.611.153-.804.435-.295 1.065-.357 1.428-.726.208-.212.277-.764.56-.908.157-.08.5-.12.638-.26.401-.408-.6-.857-.74-1.14-.262-.536.34-.888.714-1.142.527-.357 1.05-.06 1.632-.207.207-.053 1.505-.54 1.554-.39.123.374-.52.482-.739.65-.514.391-.592 1.186-.127 1.659.138.14.937-1.158 1.02-1.297.122-.207.33-.451.33-.674 0-.044.007-.081.052-.104.467-.237 3.12-1.437 3.288-1.608.177-.18-.321-.763-.46-.622-.286.291-1.714.167-2.09.104-1.61-.274-3.16-.737-4.766-1.064-1.445-.294-2.85-.544-4.333-.544-.149 0-1.39.127-1.453 0-.11-.226.688-.366.561-.752-.094-.289-1.397-.573-1.708-.467-1.398.474-2.806 1.374-4.358 1.374-.426 0-1.124-.245-1.453-.078-.524.267-.813.682-1.479.908-1.092.37-2.048.088-2.829.882.308 1.252-.135 2.479-.586 3.397z" opacity=".642"/>
        <path fill="#EE7669" d="M50.425 37.728c-.468 1.193-2.163.92-2.661 1.938-.117.238-.102.63-.102.904 0 .246-.024.496.05.724.68 2.08 2.225-.519 3.346-.233.813.207 1.825 2.08 2.814 1.577.486-.249.339-.945.456-1.422.066-.27.596-.826.456-1.11-.23-.469-.993-.604-1.242-1.112-.353-.72-.483-1.396-1.242-1.783-.438-.223-1.462.393-1.875.517z"/>
        <path fill="#EE7669" d="M16.503 33.73c-.294 0-.914-.02-1.04.237-.09.183-.005.871-.116.984-.405.414-.706 1.102-.885 1.653-.072.22.604 2.507.731 2.637.204.208.596.295.81.512.283.29.166 1.733.038 2.126-.164.502.071 1.231-.154 1.692-.652 1.332-.604 3.766.654 4.409.35.179.154-1.334.154-1.535 0-.9.397-1.587.924-2.126.452-.461 1.54-.707 1.849-1.338.222-.454.615-1.77.886-2.047.352-.36.866-.413 1.155-.709.207-.211-.116-.944.077-1.141.265-.271 1.07-.96.732-1.653-.345-.705-1.079-.197-1.58-.709-.868-.888-1.748-2.134-2.81-2.677-.419-.213-.938-.088-1.425-.315z" opacity=".743"/>
        <path fill="#EE7669" d="M18.609 15.231c0 1.015-2.25 1.856-1.89 2.589.214.433 1.021-.139 1.311.156.498.507.48 1.47.887 1.883.177.18.647-.096.81.235.377.767-.642 1.269.77 2.706.134.136.43-.56.463-.628.188-.382.657-1 1.003-1.176.68-.346 1.972-.752 2.428-1.216.547-.556.116-1.961.424-2.588.155-.314 1.206-.999.964-1.49-.232-.473-1.38-.145-1.889-.274-1.557-.397-3.73-.627-5.281-.197z" opacity=".483"/>
        <path fill="#C1392B" d="M11.477 15.745c.897-.248 2.353.276 3.13-.117.193-.098.765-.274.966-.274.31 0 1.02-.376 1.313-.078.098.099-.142.287-.154.313-.306.62-.854 1.258-1.16 1.877-.137.278-.733.203-.733.43 0 .079.006.17.038.234.455.92 1.655 1.323 2.357 2.034.05.05-.018.272-.038.312-.396.8-.098 1.835.193 2.425.214.433.998.697 1.352 1.055.187.19-.069.712.116.9.078.078.545.383.425.625-.036.074-.113.079-.193.079-.944 0-.576-.307-.85-.86-.076-.154-1.121.039-1.198.117-.351.355.947.586.696 1.094-.251.508-1.136-.32-1.469.352-.327.662-.631 1.578-1.159 2.112-.128.13-.438-.026-.58.117-.294.298.34 1.299.039 1.603-.082.084-.209-.133-.232-.156-.398-.403-.278-.59-.889-.9-.079-.04-.509.303-.656.352-.742.25-1.276-.004-1.276.9 0 .343.073 1.014.387 1.173.541.274.54-.874 1.16-.665.544.184.113.894.308 1.29.207.418.546-.073.812.196.192.194-.287.491-.078.704.175.177 1.272.433 1.082.625-.393.398-1.628-.765-1.739-.82-.232-.119-2.76-1.152-2.782-1.174-.49-.495-.483-1.427-1.043-1.994-.022-.022-.331-.447-.386-.391-.117.118.296.807.154 1.095-.027.055-1.3-.754-1.43-1.017-.574-1.162-.792-2.952-1.506-3.675-.213-.215.42-.552.231-.743-.148-.15-.595-.016-.734-.157-1.03-1.042-1.104-1.892-2.589-2.267-.927-.235-1.859 1.053-2.086.938-.28-.142-1.046-.946-1.16-1.29-.118-.36.493-.372.348-.665-.14-.285-.6-.897-.425-1.251.07-.143.087-.748.232-.821 1.43-.724 3.37.848 4.869.469.191-.049 2.018-1.964 2.318-2.268.19-.193 1.158.146 1.353.195.923.234 2.432.785 3.168.04.294-.298-.502-1.717-.502-2.073zm1.968 5.622c-.276.093-.51.594-.651.737-.216.219-.831.066-1.034.271-.01.01 0 .026 0 .04 0 .44 1.736.633 2.106 1.008.34.345.364 1.232.842 1.474.276.14.088-.722.153-.853.108-.219.538-.926.46-1.164-.057-.171-.005-.041-.077-.078-.771-.39-1.119-.899-1.8-1.435z"/>
        <path fill="#C6C6C6" fill-rule="nonzero" d="M.547 59.222H60v1H0V60.2h-.453V.2h1v59.022z"/>
      </g>
    </svg>

    <svg id="map-chart-col" xmlns="http://www.w3.org/2000/svg" width="160" height="120" viewBox="0 0 160 120">
      <g fill="none" fill-rule="evenodd" stroke="#FFF" stroke-linecap="round" stroke-linejoin="round" stroke-width=".5">
        <path fill="#589E53" d="M50.398 27.692c-2.3-.16-6.898-.732-6.898-.732l-1.375 13.815s5.108.497 7.662.683c3.78.274 11.338.698 11.338.698l.375-13.94s-7.402-.266-11.102-.524z"/>
        <path fill="#F17100" d="M91.75 21.685l-.125.377h-.25l.125 1.256v.753l-1 .628-.125.377-.25.377v.376l.375.126.25.377-.125.502-.125.377.125.251-.125.126.125.25-.125.754.625.503h.5l.375.377.5.125.5.503.375.502.375.251h.5l.5.502.125.377v1.005H95l.125.377.375.25-.25.378.125.879.375.753h.75l.25.628 7.5-.753-.125-.503.125-.25v-.378l-.25-.125-.125-.502-.125-.754v-.502l.125-.377v-.377l.25-.502-.25-.252.125-.753.125-.377.375-.251-.25-.377v-.753l.375-.628-.125-.377.375-.377.125-.628.125-.502.25-.377h-.25l-.125.377-.25.377h-.125v.376l-.25.252.125.25-.125.126h-.125l-.375.126-.25.502-.25.251-.25.377-.25-.125v-.377l.25-.628.25-.377.375-.251v-.251l-.375-.251.25-.754h-.125l-.375.126H103l.25-.503-.25-.628-.375-.25h-.375v-.378l-.375-.125-.875-.126-.5.126-.5-.251-1.625-.377L97 22.69l-.375-.503-.375-.125-.875-.252-.5.252v-.252l.25-.879-.25-.125-.625.376-.375.126-.875.502-.75.126z"/>
        <path fill="#45A757" d="M122.375 50.194v.126h.125v.251h.125v.251h.125l.125.251h.375l.125.126.375.126.375-.377.125-.251.5.25.25-.25h.5l.125-.252-.125-.25.25-.126.25.125.5-.376.125.125.5-.377-.125-.125.25-.251v-.126H127v-.251l.125-.377.5-.754.125-.502-.125-.125.375-.377-.125-.126.25-.377v-.502l.125-.126h.25l.25.252h.5l.25-.252v-.376l.125-.126v-.377l.125-.25.125-.127.375.126.125-.502h.25v-.126l.25-.251v-.251l.25-.377v-.377l.125-.251-.125-.251.125-.126 1.5.754.125-.754v-.251l-.25-.126-.125-.25h-.125l.125-.252-.5.126-.5-.252-.125.126-.125.251h-.375l-.125.377-.25.126h-.375l-.25-.377v.377l-.375.376h-.375l-.125.252-.25.376-.5.503-.375-1.759-2.75.503-.625-3.14-.375.251.375.251-.125.377.125.377-.125.502v.628l-.125.754v.502l-.625.377v.377l-.5.502-.25-.251-.375.251v.251l-.25.126-.125.502-.125.251.125.126v.251l-.25.251h-.125v-.25l-.25-.126-.25.25-.125.378v.25l.125.629-.25.125v.377l-.75.377.125.377-.125.502.5.502.125.252.5.628.625.376z"/>
        <path fill="#2C5A9C" d="M135.125 43.287l.25-.251-.375-.377-.125.251.125.126z"/>
        <path fill="#DD9806" d="M29 21.685v-.377l.125-.126v-.25l-.25-.503 1.375-8.666s-7.081-1.233-10.622-1.912c-1.043-.2-3.128-.725-3.128-.725l-.125.25.125.629h.375v.502l-.125.502h-.25l-.125-.25-.125-.252-.375-.502-.25.125.25.126.25.251-.25.126-.375-.251-.375-.126.125.377.625.25.25-.25.25.376-.375.503.125.377.25.753.25.126-.125-.377-.25-.628.125-.377h.25l.25.126v.879l.25.126-.25.376-.375.377v.754l-.125.628-.25.376-.25-.125-.375.377-.125.125L15 15.28l-.25.125-.375-.125.25-.377.375-.377.25.126.25-.252.25.377.125-.753-.25-.126.125-.502h.375l.125-.377-.875.502-.25.126-.5.377.25.25h.25l-.25.126h-.625l.125-.25.5-.503.375-.377v-.377h.25v.252l.375-.377-.25-.754v.377l-.375-.377-.125.126-.375-.377h-.375L13 11.261l-.5-.252-.25-.25-.875-.503-.25.628v.753l.375.503.125.502-.125 1.005.25.377-.125.753H12v.251l.5.252-.625.125-.125.251-.125-.125v.377h.5l.25.376H12l-.125.503.125.377h-.375l-.125-.252-.125.503h.25l.25.125h.5l.125.126h.375l.125.377.25.125h.375l.375.377.25.628-.125.88v.25l.875.252.375.25.875-.25.375-.126.75.126.625.25.125.377.5-.125.125.125.875-.125.625.125.625-.125L22 20.93l.375-.125 1.125.25.375-.25 5.125.879z"/>
        <path fill="#960D0D" d="M139.5 50.571v-.251h.125v-.628l-.25-.377h-.875l.125.377-.375-.126-.25.252v-.377l-.625-.251v-.377h-.75l-.25-.251-.875.125v-.251l1-.126.125.252.125-.377.125.377h.625v.25l.75.378.25-.252-.25-.125v-.251l-.25-.126h-.375l-.875-.754v-.25l.875.753H138l-.25-.251.125-.377.5.377-.125-.377-.375-.251-.5-.126-.25-.377-.375-.125-.5-.377-.375-.502h-.25l-.375-.126.125-.126h.5l.875.88h.25l.5.502v-.251l.375.25v-.501l-.125-.252.25-.125-.375-.126-.5-.125-.125-.252-.375-.125-.25.125-.5-.125-.375-.377v-.251l-.375.377h-.5V44.04l.25-.25.25-.126v-.377l-.125-.251-.125-.126h-.375l-.125-.251h-.5l-.25-.251.125-.377-.375-.126h-.5l-.125.754-1.5-.754-.125.126.125.251-.125.251v.377l-.25.377v.25l-.25.252v.126h-.25l-.125.502-.375-.126-.125.126-.125.251v.377l-.125.126v.376l-.25.252h-.5l-.25-.252h-.25l-.125.126v.502l-.25.377.125.126-.375.377.125.125-.125.502-.5.754-.125.377v.251h.25v.126l-.25.25.125.126-.5.377-.125-.125-.5.376-.25-.125-.25.125.125.251-.125.252h-.5l-.25.25-.5-.25-.125.25-.375.378-.375-.126-.125-.126h-.375l-.125-.25h-.125v-.252h-.125v-.251h-.125l-.875 1.13-.875.503v.376l-.25.252v.25l-.625.252-.125.377-1.375.753 5.5-.879v.126l15.75-2.889zm.125-5.275v.251l-.125.126.125.251-.25.377-.125.377v.502l-.125.502.125.503.125.125.125-.376v-.754l.125-.377.375.126v-.754l.25-.502-.125-.251v-.377l-.5.251z"/>
        <path fill="#45A757" d="M140 20.178l4.5-1.256.125.125.125.252-.25.502.375.502-.125.126v.251l-.375.628-.125.126H144l-.125.25.125.378v.879l-.125.125v.503l-.125.25v.378l-.125.125.125.754.125.125-.125.503.125.251v.377l-.125.125v.377l.5.377-2.125.377-.125-.126-.5-2.26v-.252l-.25-.25-.25.25v-.753l-.125-.126v-.126l-.125-.125-.125-.377h-.125v-.628l.125-.251-.25-.377-.125-.502-.125-.251v-.628L140 20.68v-.502z"/>
        <path fill="#F6AA0A" d="M34.5 36.38l-2.125 17.33s3.819.538 5.728.743c2.757.297 8.272.765 8.272.765l1.125-13.94-5.375-.503.375-3.391-8-1.005z"/>
        <path fill="#E14F00" d="M63.25 57.981l8.625.126v6.782h.375l.75.753.375-.125h.25l.125-.252.5.503v.377h.625l.75.25.375-.125.375.377.375-.251h.75v.377l.375.125.25.502.75-.627.125.376h.25l.375.251.5-.25.25.627.5-.879.625.377.375-.126.25.251.75.252h.25l.125-.377.625-.126h.25l.75-.25.5.125.5-.251.75.25.375.377.375.252.75.125.5.251.125-.125h.625l.125.125v1.884h.125l.125 3.643.375.376.375.503v.502l.25.251v.126l.25.251v.377l.25.25.125.127v.376l.125.126-.125.125v.754l-.125.377-.25.502v.377l-.125.251.25.503-.125.502-.25.251-.25.502-.125.252.25.376h-.5L89 82.22h-.5l-.625.126.25-.377.125-.377-.25-.125-.25.125-.25.252-.5-.126.125.502.25.377.25.251-.125.252-.5.502-.25-.126.125.628-.75.628-.75.503-.875.125-.125.251h-.625v-.25l-.375.25-.25-.25-.25-.252.125.628-.375-.126-.25-.25-.125.125.25.502.25.126-.25.25.5-.125v.252l-.625.376-.5-.628-.125.377v.628l-.125.251-.125-.502-.75.502-.125.251.25.252.375-.252-.5.754-1-.126-.125.252.375.125.5.377-.5 1.256-.25-.251-.375.25-.5-.501.125.502-.125.125.125.126.625.126.25-.126-.125.88-.125.125v.753h.25l.125.754-.125.251.375.628.25.628.25.126-.125.502-.25.251-.5-.125-.5-.503h-1.75L77 94.403l-.75-.126-.5-.502h-.875v-.377l-.25-.125-.25-1.005-.375-.503-.25-.25v-.629l-.25-.377.125-.25v-.377l-.125-.377-.5-.251-.625-.503-.125-.377-.5-.753-.375-.251-.25-.377-.25-.88-.375-.502-.125-.376-.375-.503v-.628l-.375-.25v-.252l-.875-.502v-.252l-.5-.125v-.377H68l-.375-.628h-.875l-.75-.126h-.625l-.5-.25-.25.376-.875.126-.5.753-.125.628-.25.377-.625.628v.251l-.75-.251-.375-.377h-.5l-.375-.502-.625-.126-.75-.753-.375-.126-.375-.377-.125-.502-.25-.503-.125-.376.125-.377-.5-.88v-.376l-.375-.628-.625-.502-.5-.126-.625-.754v-.25l-.5-.377-.5-.503-.375-.251-.375-.251-.375-.377v-.502l-.25-.126-.25-.126-.375-.376v-.377l10.625.502.5-15.95z"/>
        <path fill="#F6AA0A" d="M100 62.126l17.125-2.01v-.879l.125-.126.5.126.125-.754.75-.628h.625l.875-1.004h.5l.125-.628h.25l.125-.377.375-.126.125.252h.25l.25-.628.625-.126.25.126.375-.88.25-.25h.125v-.88l-5.5.88-.25.25-11.5 1.13h-.75l.125.378v.25L102 56.6l-.125.125-.25-.251v.251l.125.502h-.25l.125.377h-.25l.25.377-.25.126-.125.376.25.126.125.126h-.375v.25l.125.126-.625.377.125.503v.25h-.25l-.125.503-.125.377.25.502h-.375z"/>
        <path fill="#AD4106" d="M67.032 35.346c-1.885-.032-5.657-.223-5.657-.223l.125-6.907h.125l.125-3.14s6.964.125 10.5.125c2.797 0 8.5-.125 8.5-.125l-.125.377-.25.376-.375.252.375.753.5.126.25.376.125 6.155h-.375v.25l.25.252-.125.377.25.25-.125 1.006-.25.376.375.88H81l-.25-.377v-.251h-.375l-.125-.126-.375-.126H79.5l-.375-.376-.625.125h-.875l-.25.251H77l-1-.628s-5.978.023-8.968-.028z"/>
        <path fill="#45A757" d="M121.5 59.237l-.875.377-.25.377-.375.753.625.251.125.126.375.251.5-.126v.377l.375.251.125.377.125.126.375.251.125.377h.25l.125.25.625.252.375.628h.375l.375.377v.251l.375.126v.25l.25.126v.252h.375l.625.376v.252l.25.376.125.503.125.25h.375l.125.252.375.502v.503l.25.377.125-.126h.5l.125-.377v-.377l.25.252-.375-.628-.25-.503.125-.125.375.628.25.125-.125-.502.25.251.125.377.25-.251-.125-.377-.25-.126-.25-.125.5-.126.375.126.25-.251v-.252h.375l.375-.25.25-.252-.25-.251v-.251h.25l.125.25.25-.25.25-.252v-.502l.25-.126.25.126.25-.377-.125-.25.5-.252-.375-.126v-.376l.25-.377v.628l.375-1.13.375-.629.625-.628-3.625-2.637-3.25.502-.125-.502-.5-.377-.25.251-.125-.376-3.75.502-.5.251-.375.126-.125.251z"/>
        <path fill="#1F3082" d="M146.5 29.22l.5 1.759v.502l.25-.126.25-.25h.375v-.503l-.125-.251.125-.251h-.25l.125-.252-.125-.25.125-.126v-.252h-.125l-.125-.376z"/>
        <path fill="#45A757" d="M123.75 34.244l.75 4.647.625 3.14 12.75-2.512.125-.377.25-.251h.625l.125-.251.375-.251v-.252l.875-.753v-.251l-.75-.503h-.25l-.125-.502-.375.126-.125-.503.125-.377.125-.25-.25-.252v-.251l.25-.251.25-.503v-.25l.375-.378-.25-.25h-.75l-.25-.378v-.628l-.375-.25-.25.125-.125-.251-.375-.126-11.375 2.386-.125-.879z"/>
        <path fill="#DD9806" d="M26.625 35.249l1-6.28.25-.502v-.377l.25-.251-.25-.251-.5-.126.125-.753.625-.754.5-.502.125-.377.5-.754.125-.25.625-.754-.125-.628-.75-.628v-.377l-5.25-.88-.375.252-1.125-.251-.375.125-1.125.126-.625.125-.625-.125-.875.125-.125-.125-.5.125-.125-.376-.625-.251-.75-.126-1.25.377-.375-.251-.875-.252v-.25l.125-.88-.25-.628-.375-.377-.375.126h-.375l-.125-.377-.5.126-.25-.126-.125.251-.375-.377v.628l-.25.252v.502l.125.251-.25.251.125.503H11l-.75 2.135-.125.377.125.25-.125.252-.125.251v.251l-.25.251-.25 1.13-.25.629.125.251-.25.126-.375.628H9v.376l-.25-.125-.25.376-.125-.25-.375.878-.375.754.125.502-.125.754-.125.753v.503l.25.502 11 2.26z"/>
        <path fill="#F17100" d="M63.5 56.097s7.704.21 11.556.19c4.023-.021 12.069-.315 12.069-.315l.125 1.883.625 3.643.25 6.28-.75-.126L87 67.4l-.375-.376-.375-.126-.375-.125-.5.25-.5-.125-.75.251h-.25l-.625.126-.125.377h-.25l-.375-.126-.375-.126-.25-.25-.375.125-.625-.377-.5.88-.25-.629-.5.251-.375-.25H79l-.125-.377-.75.627-.25-.502-.375-.125v-.377h-.75l-.375.25L76 66.27l-.375.126-.75-.251h-.625v-.377l-.5-.503-.125.252h-.25l-.375.125-.375-.377-.375-.376h-.375v-6.782L63.5 57.98v-1.884zM112.625 37.007l1.125 9.043.25-.251.375.25.25-.25.25.25h.25l.375.754.375.126.625-.126.375.377.25.126.25-.377h.5l.25.251.125-.125h.375l.125-.252.5-.376.25.628.5.125.25.377.25-.126.5-.25v-.378l.25-.125-.125-.628v-.251l.125-.377.25-.251.25.125v.251h.125l.25-.25v-.252l-.125-.126.125-.25.125-.503.25-.126v-.25l.375-.252.25.251.5-.502v-.377l.625-.377v-.502l.125-.754v-.628l.125-.502-.125-.377.125-.377-.375-.25.375-.252-.75-4.647-2 1.256-.875 1.005-.375.125h-.5l-.5.252-.375.125-.125.251-.75-.125H118l-.25.125-.375-.125.75-.377h-.25l-.25.126-.625-.252-.625-.125-.25-.126z"/>
        <path fill="#589E53" d="M71.375 25.201c-3.227 0-9.625-.125-9.625-.125L62 14.777s4.708.161 7.062.179c3.23.024 9.688-.053 9.688-.053l.375 1.005-.125.376v1.382l.75 1.758.125.628v1.005l.125.628v.251l.125.88.125.502.375.502.125 1.256s-6.269.125-9.375.125z"/>
        <path fill="#AD4106" d="M123.75 53.46l15.75-2.889.5.502.5.754-.625-.502.125.376-.625-.376-.25.125.625.377-.25.126-.5-.126.375.377-.75-.377v.251l.375.251-.375.252h-.5l-.125-.503v-.502h-.25v.753l.25.377v.377l.625-.126.25-.25.25.25.375-.125.25-.377.25.377-.125.377.25.125-.25.251h.375l.125-.502-.125-.377h.375l.125-.251.25.502v.754l-.25-.126-.125.126-.25.753-.25.252h-.5l-.25-.252-.25.252-.125-.252.25-.25-.75.125.25.377H138l-.5-.126.25.377.75.125h.75v.252l-.5.25.375.126-.375.503h-.375l-.75-.377.5.628.5.126h.25l.25-.377.25.25.625-.376-.5 1.005-.375-.251-.375.25-.625.378-.375-.252v.377l-.375.503-.125-.503H137l.125.251-.125.126.25.251-.5.377-.375.628-.25.628v.377l-.25-.503v1.13h-1l-.25.252-.375.125-3.625-2.637-3.25.502-.125-.502-.5-.377-.25.251-.125-.376-3.75.502-.875.377-.125.251h-.125l-.875.377-3.5.502v-.879l.125-.126.5.126.125-.754.75-.628h.625l.875-1.004h.5l.125-.628h.25l.125-.377.375-.126.125.252h.25l.25-.628.625-.126.25.126.375-.88.25-.25h.125zM125.625 32.988l.125.88 11.375-2.387.375.126.125.25.25-.125.375.251v.628l.25.377h.75l.25.251 2.25.754v-.126l-.125-.376-.25-.252v-.376h.125l.125.25.125.252.125.126.125 1.004.375-.377.125-.25-.25-.377.5-.628-.25-.252-.375-2.511H142l.125-2.512-.125-.126-.5-2.26v-.252l-.25-.25-.125.125-.125.125v-.753l-.125-.126v-.126l-.125-.125-.125-.377h-.125v-.628l.125-.251-.25-.377-.125-.502-.125-.251v-.628L140 20.68v-.502l-3.5.879h-.375l-.625.502-.25.377-.75 1.005-.125.25v.378l-.375.376-.875.88.125.125h.625l.125.126-.125.251-.25.377h-.125l.25.251v.251l.25.126-.125.125v.252l-.25.125h-.25l-.5.628-.125.251-.5.251-.125.126h-.75l-.25.126-.5.25h-.25l-.25-.25-1.125.125-.25.126h-.5l-1.5.628.125.251v.377h.5v.25l-.125.252.25.251v.251l-.25.377-.25.503-.5.376-.25.377-.625.628zm16 2.26l-.125.126-.125.377.25-.125.125-.252-.125-.125zm.25-.125v.126l.125.125.125-.125.125-.126.125-.125.25.125.125-.125 1-.503h.375v-.25h.25l.5-.378.625-.125.125-.251-.125-.126-.125.126-.125-.126.5-.628-.125-.126-.5.628-.125.126-.625.126h-.25l-.125.125h-.125v.126l-.5.125-.125.126-.25-.126v.251l-.125-.125-.125.125v.252l-.25.125-.125.126h-.25l-.125.125-.125.377zm3.875-1.884v.126h.125l.375-.251.125-.251h.25l.375-.377-.5.251h-.25l-.25.126-.125.125-.125.251z"/>
        <path fill="#960D0D" d="M46.375 55.218s4.53.391 6.796.524c3.443.202 10.329.48 10.329.48v1.759h-.25l-.5 15.95-10.625-.502v.377l.375.376-5.125-.376-.125 1.632-2.5-.25 1.625-19.97z"/>
        <path fill="#45A757" d="M139.5 33.24l2.25.753.125.125-.125.503v.377l-.25.125-.125.251-.125.377.125.251.5.126h.25l.125.628-.125.628v.753l-.125.126.125.251-.125.503-.125.125h-.25l.25.377h-.25v.251l.125.126h-.25l-.125.25-.25.127.25.125-.25.502v.126l-.125.126v.25l-.25.252v-.879h-.5l-.25.125-.125-.25h-.375l-.125-.252h-.25l-.375-.251v-.377l-.125-.125.125-.377v-.251h.125l.25-.377.25-.251v-.252l.875-.753v-.251l-.75-.503h-.25l-.125-.502-.375.126-.125-.503.125-.377.125-.25-.25-.252v-.251l.25-.251.25-.503v-.25z"/>
        <path fill="#960D0D" d="M144.25 27.21l2.625-.627.375-.126.25-.502h.125l.125-.251.25-.126h.25v-.377l.125-.25-.5-.252v-.377l-.5-.25v-.378l-.25-.628-1.75-5.275-.125.252-.375-.126-.125.126v.25l-.125.378v.376l.125.252-.25.502.375.502-.125.126v.251l-.375.628-.125.126H144l-.125.25.125.378v.879l-.125.125v.503l-.125.25v.378l-.125.125.125.754.125.125-.125.503.125.251v.377l-.125.125v.377z"/>
        <path fill="#F17100" d="M26.72 35.317c2.593.396 7.78 1.062 7.78 1.062L32 56.35l-.125.25-.25.503h-.375l-.125-.502-.25.125-.375-.251-.5.251-.125.502.125.377-.125.251.125.628-.125.377.125.628v.503l-.25.125v.502L16.875 44.166l1.875-10.173s5.355.924 7.97 1.324z"/>
        <path fill="#8FAA18" d="M66.5 42.156V45.8s4.984.057 7.476.022c3.591-.05 10.774-.274 10.774-.274l-.25-.25v-.252l-.25-.377-.375-.25-.25-.629-.25-.125v-.503l-.25-.251v-1.507l-.25-.251.25-.126-.375-.251v-.377l-.375-.377.125-.753-.25-.251v-.377l-.25-.126-.125-.377-.25-.125v-.503l-.125-.627H81l-.25-.377v-.251h-.375l-.125-.126-.375-.126H79.5l-.375-.376-.625.125h-.875l-.25.251H77l-1-.628s-6.127.02-9.19-.032c-1.812-.031-5.435-.219-5.435-.219l-.25 7.033H66.5zM52.298 27.855c2.942.204 9.327.36 9.327.36L62 14.778s-4.606-.16-9.494-.51c-2.923-.208-5.947-.565-8.148-.772-3.91-.368-11.733-1.355-11.733-1.355l-.5 3.14.5.753.25.628-.125.251.125.377h-.125l.5.628.375.251.875 1.13-.125.252.5.502h.25v.377h.75l-.5 1.507-.25.126.125 1.004-.375.126v.753l.5.503 1-.754.25.503.25 1.004.5 1.005-.125.503.375.376H38l.25 1.005.5.502.25-.376.875.25.25-.376 1.125.126.125.125h.75l.25-.502h.25l.625.879.125-.126.125-1.632s5.699.68 8.798.895z"/>
        <path fill="#F6AA0A" d="M87.87 43.281c-1.498.086-4.495.131-4.495.131v.252l.25.125.25.628.375.251.25.377v.251l.25.251.625.377.25-.125.25.125.125.377-.25.126-.125.25-.25.378.25.25.375.252v.251l.25.377h.375l.25.125.25 7.662.125 1.758 12.625-.88.375.377v.252l-.625.879-.125.125v.252l1.75-.252.125-.376.25-.126-.25-.377h.25l-.125-.377h.25l-.125-.502v-.251l.25.251.125-.125.125-.377v-.126l.375.251.125-.376.125-.377-.125-.251.125-.503h-.25l-.25-.251v.251l-.375-.125v-.252l-.375-.502v-.126l.125-.376v-.126l-.25-.251v-.502l-.5-.252-.25-.376h-.125l-.5-.252-.25-.125-1-.754v-.502l.375-1.005v-.377l.125-.25-.375-.378h-.5l-.375.377-.25-.251-.25-.628v-.377l-.25-.376-.75-.377-.125-.251-.75-.628-.125-.252-.125-.25-.125-.252-.25-.754.125-.502.125-.251-.875-.754s-4.336.373-6.504.497zM106 61.498l.125.25.25.126v10.801l.75 5.024-.125.377-.5-.251-.125.125H106l-.5-.25-.5.376-.375.251-.375-.251v.251l-.125.377-.625.125v-.25l-.25-.629-.375-.377-.125-.376.125-.88v-.25l-5.625.502v-.503l-.125-.502h.25l.125-.251-.125-.503.25-.376.25-.88.75-.627-.125-.503h.125l.25-.753-.5-.377v-.377l-.25-.377.25-.125-.125-.126-.125-.251.25-.377L98 69.41v-.377l.25-.251-.25-.377v-.628l-.25-.25.25-.252-.25-.251.375-.503-.125-.628.5-.25.125-.126-.25-.252.5-.502v-.251l.375-.251v-1.13h.375v-.377l.375-.252v-.376z"/>
        <path fill="#DD9806" d="M94.875 32.737l-13.625.754-.125-6.155-.25-.376-.5-.126-.375-.753.375-.252.25-.376.125-.377-.125-1.256-.375-.502-.125-.503-.125-.879v-.251l-.125-.628v-1.005l-.125-.753-.75-1.633v-1.382l.125-.376-.375-1.005 5.125-.251v-1.256l.5.125.25.377.25.754v.502l.375.377H86l.125.125 1 .126.125.377.375-.126h.5l.125-.251.375-.126h.75l.25.126h.5v.251h-.25l.125.126h.5l.125.502.25.126.125.125.125-.502h.5l.125.377h.625l.125.377h.25l.125.25.625-.25.25-.126.75-.502.375.502.5-.126 1.125-.125.375.377.25-.126h.5l-.875.628-1.375.502-.875.754-1 1.13-1 1.005-.625.377-.125.376-.125.252h-.25l.125 1.256v.753l-.375.251-.625.377-.125.377-.25.377v.376l.375.126.25.377-.125.502-.125.377.125.251-.125.126.125.25-.125.754.625.503h.5l.375.377.5.125.5.503.375.502.375.251h.5l.5.502.125.377z"/>
        <path fill="#F17100" d="M107.25 37.51l5.375-.754v.251l3.5-.628v-.377l.5-.628v-.879l.25-.502.375-.126-.125-.502.375-.251-.125-.251.25-.126.375.377.25-1.507-.5-.628-.375-1.256-.375-1.005-.25-.502h-.5l-.5.376h-.25l-.375 1.005h-.25l-.125.377h-.375l-.625-.126.125-1.004.5-.252.25-.25v-.503l.25-.251.25-.252-.125-1.381-.25-.502-.375-.252.125-.376.375.125-.25-.377h-.25v-.502h-.5l-.375-.126-.375-.125h-.75l-.125-.377-.375-.125h-.375l-.75-.252-.375.252-.375.376v.377l.125.126.5.125-.125.126-.75.251-.375.251.125.628v.754l-.25.502-.25-.125-.125-.252v-1.13l-.375.754-.125.25h-.25l-.375.252.125.377-.5.25.25.378v.879l-.25.502-.375.503.375.502v.377l-.25.502.25.628.375.502.125.126h.25l-.125.377.25.628.125.377v1.632l-.375.88-.25.627-.125.628-.375.251zm-3.5-11.178l.75-1.759.375-.628.125-.753.25.377v.376l.375-.502.5-.251.125.502-.375.377.125.126.625-.754.25-.377.5-.25.375.125.625-.251.25-.377.875-.126.75.251.375.377.25-.753h.625l1 .125.375-.125h.875v-.252l-.25-.25-.25.376h-.5l-.375-.251-.25-.126-.25-.125v-.252l.125-.376-.125-.503-.375.252-.5.25h-.25l-.125-.125-.375.126-.625-.126v-.88l-.5.127-.75.502-.875-.126-.75.252-.75.627-.25.252-.375-.126-.25.251-.375-.377-.625.377-.375-.125-.75-1.005-.75-.126-.5.126-.75.502-.125-.879.5-.628.625-.628-.125-.125.75-.252h-.375l-.75.126-.75.502-.25.377-.375.126-.25.377-.25.376h-.375l-.5.503-1.125.25-.25.378-.375.25-.875.378.5.125.375.503 3 .628.5.25.625-.125.75.126.375.125v.377h.375l.375.251.25.628-.25.503h.125l.375-.126h.125l-.25.754.375.25z"/>
        <path fill="#667B0C" d="M142 30.1h.125l1.625-.377.125.125 2.625-.753v.125l1-.376.125.376h.25v.377l.375.126.125-.377h.125v.251l-.125.251.125.503.125.125.125-.25.125-.126.125.125.125-.251v-.251h.125l.25-.251v-.252h.25l.125.252v.376h.25l.125-.25.125-.126.375-.126.75-.377v-.377l-.125-.125-.125-.251-.25-.377h-.125l.125.251s.289.274.37.411c.044.072.005.217.005.217l-.375.126-.125.125-.125.126H150l-.125-.251v-.377l-.25.125-.375-.125.125-.377-.5-.502-.25.125-.125.126-.25-.126-.125-.125v-.252l.125-.125v-.126l.25-.125-.125-.126v-.251l.5-.126.125-.25-.25.125-.25-.126-.125-.125v-.252h-.25l.125-.25H148l-.25.125-.125.251h-.125l-.25.502-.375.126-2.625.628-2.125.377L142 30.1zm7.75.376v.251l.25-.25.5-.126-.375-.251-.125.25-.25.126zm1.625-.125l.125.125h.25l.125-.125-.125-.251-.125.25h-.25zm-3.125-.377l-.125.251.125.377.125-.126-.125-.502zM127.875 41.528l.375 1.759.5-.503.25-.376.125-.252h.375l.375-.376v-.377l.25.377h.375l.25-.126.125-.377h.375l.125-.25.125-.127.5.252.5-.126-.125.251h.125l.125.251.25.126v.251h.5l.375.126-.125.377.25.25h.5l.125.252h.375l.125-.251.375.377-.125.25v.252l-.125.251v.251l-.25.377v.377h.25v-.377l.25.126.125-.126.25.377.25.125-.125-.376.25.25.125.252.375-.126.25.126.125.126.25-.126.25.377.125-.251-.375-.377h-.125l-.375-.251-.25-.126-.25-.377v-.502l.25.502.25.251.5.252v-.126l-.5-.502v-.377l-.25-.251v-.628l-.25-.126.25-.125-.375-.126.375-.377-.5-.377.25-.125.125.125v-.25l.25-.252-.125-.126.25-.125.125.251v-.502l.125.25.25-.125-.125-.25.125-.252.25-.251.125.377.25-.252v.252l-.25.25.375.126-.125.126-.5.125-.25.377v.503l.25-.126h.125l-.125.502-.125.126H137v.251l.5-.251.125.251-.125.251h.25l-.125.252-.125.125.375.251.25-.125.125.25-.75.127.125.25-.125.252.5.125.25.377v-.377h.25l.25-.376v.628h.125l-.125.25h.25l.125.252-.125.377.625-.126.625-.251v-.377l.25-.125-.125-.377.375-.126v-.25l-.25-.378-1.5.377-1.125-4.27z"/>
        <path fill="#589E53" d="M147.875 9.502l-1.125 2.889.125.88-.25.376v.251l-.125.377.25.125-.125.126v.502h.25l-.25.503v.377l-.375.502-.125.377.25.25-.125.252-.25-.125v.627l-.375-.376-.25.376 2 5.903v.377l.5.251v.377l.5.251.125-.628-.125-.502.375-.251.125-.126-.125-.502.375-.126-.25-.502.5-.628h.25v.377l.125-.252.25.252.125-.252-.625-.753.625.502v-.628l.375.628.25-.879.375.251.25-.25.125-.503-.125-.88.125-.25.25-.377.125.25.25.378h.375l.125-.503.375.126.25.251.25-.754-.25-.25.5.25.375-.25.375-.754h.25l.5-.251.625-.503.125-.502-.375.125v-.502l-.5-.377-.25.126-.5-.251-.125-.252-.125-.376.125-.377-.25-.126h-.625l-.25-.125-.125-.754-1.25-3.642-.625-.251L150.75 9l-.5.126-.25.376-.5.252-.5.25-.375-.125-.125-.502z"/>
        <path fill="#F6AA0A" d="M89.625 69.912L98 69.41l.375.251-.25.377.125.251.125.126-.25.125.25.377v.377l.5.377-.25.753H98.5l.125.503-.75.628-.25.879-.25.376.125.503-.125.251h-.25l.125.502v.503l5.625-.503v.252l-.125.879.125.376.375.377.25.754v.125h-.375l-.625-.125-.375-.377h-.5l-.625.754.125.376.5.126.5.126.75-.503h.5l-.125.251-.375.126.125.251h.25l.25.251.25-.25.25-.503.25.502.125.251H104l-.25.503-.375-.126.125.377-.25.125.875.628 1 .252.5.628-.375.376-.375-.376-.125.125-.375-.377-.5-.125-.125-.251-.375.125-.375-.502-.75-.251h-.375l.125.25.375.252v.754l-.25.376-.25-.25v-.252l-.5-.251-.375.125-.25.126-.125.502-.875-.125h-.375l-.625-.126v-.251l.5.126-.125-.252-.375-.376.125-.377-.125-.126-.25.377-.5-.126-.125-.125-.125-.251-.125.125-.125-.377-.625.126v-.377H96.5l-.5.251-.25.126.375.377-.5.377h-1.25l-1.125-.628-.75-.126-.5.126-1 .25h-.25l-.125-.25.375-.126v-.879l.125-.502-.25-.503.125-.251v-.377l.25-.502.125-.377v-.754l.125-.125-.125-.126v-.376L91 75.94v-.377l-.25-.251v-.126l-.25-.251v-.502l-.375-.503-.375-.376z"/>
        <path fill="#667B0C" d="M102 56.6l3.875-.377v-.251l-.125-.377h.75l11.5-1.13.25-.252 1.375-.753.125-.377.625-.251v-.251l.25-.252v-.376l.875-.503.875-1.13v-.126H122l-.625-.376-.5-.628-.125-.252-.5-.502.125-.502-.125-.377-.25-.377-.5-.125-.25-.628-.5.376-.125.252h-.375l-.125.125-.25-.251h-.5l-.25.377-.25-.126-.375-.377-.625.126-.375-.126-.125-.25-.25-.503h-.25l-.25-.251-.25.25-.375-.25-.375.376.125.252v.25l.25.126v.377h-.375l-.625.377-.25-.126-.5.126.125.628-.25.377h-.25v.502l-.25.126h-.25l-.125.502v.502l-.375.251-.375-.25-.375-.126-.125-.251-.25.376-.25.503-.125.376-.25-.125-.375-.251-.375.125-.125.126-.25.502-.25-.25-.625-.252-.375.251-.125-.251v.377l-.125.125-.125-.25-.25.125-.375-.126v.502h-.375l-.125.252-.125.376.25.252v.25l-1 .378-.125.376.25.377.125.251-.25.126h-.125l-.875-.377H103l-.25.251-.25.377.125.126-.125.125h.25l-.125.503.125.25-.25.754-.375-.25v.125z"/>
        <path fill="#F6AA0A" d="M76.163 45.791c-3.22.045-9.663.008-9.663.008l-.25 10.424s6.764.17 10.146.129c3.576-.043 10.729-.38 10.729-.38l-.25-7.662-.25-.125h-.375l-.25-.377v-.251l-.375-.251-.25-.251.25-.377.125-.251.25-.126-.125-.377-.25-.125-.25.125-.625-.377s-5.725.205-8.587.244z"/>
        <path fill="#667B0C" d="M83.375 43.412s3.582-.079 5.373-.18c1.876-.108 5.627-.448 5.627-.448l.875.754.125-.126-.125-.502.75-.502v-.503l.5-.502-.125-.377-.5-.502.25-.754 1-.251.75-.502v-.503l.375-.377-.125-1.004-.75-.251v-.377l-.625-.503-.25-.628h-.75l-.375-.753-.125-.88.25-.376-.375-.251-.125-.377-14.125.754v.25l.25.252-.125.377.25.25-.125 1.006-.25.376.375.88h.25l.125.627v.503l.25.125.125.377.25.126v.377l.25.25-.125.754.375.377v.377l.375.251-.25.126.25.25v1.508l.25.251v.251z"/>
        <path fill="#F17100" d="M105.375 37.886l.375.251h.375l1.125-.628 5.375-.753v.251l1.125 9.043-.125.125.125.252v.25l.25.126v.377h-.375l-.625.377-.25-.126-.5.126.125.628-.25.377h-.25v.502l-.25.126h-.25l-.125.502v.502l-.375.251-.375-.25-.375-.126-.125-.251-.25.376-.125.251-.125.252-.125.376-.25-.125-.375-.251-.375.125-.125.126-.25.502-.25-.25-.625-.252-.375.251-.125-.251v.377l-.125.125-.125-.25-.25.125-.375-.126v.502h-.375l-.125-.376.125-.126v-.502l.25-.252-.25-.25.125-.252.25-.125.25-.503.25-.251v-.377l.25-.377v-.25l-.125-.378v-.25l-.25-.377-.25-.252.25-.125L106 46.3l.25-.251z"/>
        <path fill="#F17100" d="M104.25 35.249l-7.5.753.625.503v.377l.75.25.125 1.005-.375.377v.503l-.75.502-1 .251-.25.754.5.502.125.377-.5.502v.503l-.75.502.125.502-.125.126-.125.251-.125.502.25.754.375.754.75.628.125.25.75.378.25.376v.377l.25.628.25.251.375-.377h.5l.375.377-.125.126v.502l-.375 1.005v.502l1 .754.75.377h.125l.25.376.5.252v.502l.25.251v.126l-.125.376v.126l.375.502v.252l.375.125v-.251l.25.251.125-.125-.125-.126.25-.377.25-.25h.375l.875.376h.125l.25-.126-.125-.25-.25-.378.125-.376.375-.126.625-.251v-.251l-.25-.252.125-.376.125-.252-.125-.376.125-.126v-.502l.25-.252-.25-.25.125-.252.25-.125.25-.503.25-.251v-.377l.25-.377v-.25l-.125-.378v-.25l-.25-.377-.25-.252.25-.125L106 46.3l.25-.251-.875-8.164-.375-.377-.125-.376v-.377l-.375-.251-.125-.377-.125-.126z"/>
        <path fill="#667B0C" d="M42.5 37.384l.75-8.666-.625-.88h-.25l-.25.503h-.75l-.125-.125-1.125-.126-.25.377-.875-.251-.25.376-.5-.502-.25-1.005h-.375l-.375-.376.125-.503-.5-1.005-.25-1.004-.25-.503-1 .754-.5-.503v-.753l.375-.126-.125-1.004.25-.126.5-1.507h-.75v-.377h-.25l-.5-.502.125-.251-.875-1.13-.375-.252-.5-.628h.125l-.125-.377.125-.25-.25-.629-.5-.753.5-3.14-2.375-.377-1.375 8.666.25.502v.251l-.125.126.125.754.75.628.125.628-.625.753-.125.251-.5.754-.125.377-.5.502-.625.754-.125.753.5.126.25.25-.25.252v.377l-.25.502-1 6.28 7.875 1.13z"/>
        <path fill="#F6AA0A" d="M77.625 115l.25-.126.125-.376.625-.503.5-.25.5-.127.625-.125.5-.377.25-.502-.625-.251-.125-.503h-.375v-.502l-.5-.503-1.375-.502-.125.126-.625-.377-.25-.251-.375.25.25.503.125.251-.5.628-.375.503.25.502.25.628.125.502-.125.754.25.377h.5l.25.251zm-17-11.931l-.375.376-.25.252v.25l.125.126.25-.376.375-.126v-.377l-.125-.125zm2-.88l-.625.377-.25.377.125.377h.375l.375.377h.25l.5-.126.125-.502.25-.377-.375-.377-.5.126-.25-.251zm6.125 2.136l.5.628v.502l.5-.251.125.377.125.376h-.375l-.625-.125-.375-.251v.25l-.25.126-.375-.376-.25-.377-.125-.503.5.126.625-.502zm2.75 1.758l.25.126.375.125h.5v-.125l.25.25h.875l-.5.377h-.5l-.375-.25-.75.125h-.25l-.125-.251.25-.126v-.251zm.875 1.256h.375l.5.377-.375.376-.375-.125v-.377l-.25-.126.125-.125zm1.75 1.256l-.5.125v.126l.25.126.375-.126-.125-.251zm.25-.754l.25.251v.377l.125.251.25-.125h.375l.25-.251.25.125.375-.377v-.25l-.375-.252-.625-.377-.5.251-.25-.125-.625-.628-.125.377-.125.25.375.503h.375z"/>
        <path fill="#667B0C" d="M120.625 59.614l-7.25 1.004 2.25 7.034.5 1.13.375.502v.503l.375.125-.375.377v.628l-.25.251v.628l.5.628-.125 1.256.375.377.125.377.25.376.125.503 7.375-.503.75-.125v.251l.25.377h.375l.125-.754-.25-.125v-.503l.25-.25.625.125h.75l-.25-.377.25-.502h-.25l.125-.252-.125-.25v-.503h.25v.377l.25-.503-.625-.125v-.252l.625.126-.125-.251.375-.377-.375.126-.25-.252.5-.125-.25-.251.125-.251-.25-.126h.5l.125-.251-.375-.126.125-.251.5.126v-.252l.25-.25-.375-.126-.25-.126-.125.126-.25-.377v-.503l-.375-.502-.125-.251H127l-.125-.251-.125-.503-.25-.376v-.252l-.625-.376h-.375v-.252l-.25-.125v-.251l-.375-.126v-.251l-.375-.377h-.375l-.375-.628-.625-.251-.125-.251h-.25l-.125-.377-.375-.251-.125-.126-.125-.377-.375-.25v-.378l-.5.126-.375-.251-.125-.126-.375-.125-.25-.126.25-.502.125-.251z"/>
        <path fill="#F17100" d="M117.125 74.434l-7.75.879-.125.628.375.377.375.125v.502l.125.252h.25l-.25.502.125.126.625-.754-.125-.377.375.251.125-.25h.25l-.125.25.375.126-.25.126 1.125-.126.25-.377h.25l.625-.125.375.376-.625.126 1 .251.75.377-.375-.377.375-.25.125.25.375-.377.125.252-.375.376.25.126h.375l.25.251-.25.126-.375-.126.625.377.375.377v.377h.375l.5-.252.5-.376.125.25.875-.753h.5l-.5-.25.5-.378.375-.125h.625l.5.25h.375l.5.503.125.251.5.126.125.502.25.252.375.125.25.377.375.251h.75l.25.628.375.251v.503l.125.25v1.257l-.25.628.25.25-.125.88.5.377.125-.503-.375-.25.125-.378.5.252v.376l.25-.376.125.25.125.252-.5.754-.125.502.375.377.125.377.375.502.25.377.375.376H128l-.5-.502h.375l.5-.126.125.126-.25.126.125.879.125.377.25-.126v-.251l.5-.377v.251l-.25.251-.25.377.25.126.125-.126.25.503.125.628.375.502 1 .251.375.251v.251l.125.126.375.377.25.502.625.126.25.251-.25.251-.625-.377v.377l.25.251.625-.125.125-.251.5.125.375-.502h.375l.375-.628-.25-.251.25-.88.125-.753V88.374l-.125-.125v-1.005l-.125-.753-.25-.252v-.25l-.5-.503h-.25l-.125-.251.375.125-.25-.502-.125-.126-.5-.879-.5-.753-.625-1.005-.625-.88-.25-.879.25-.125.125.502h.375l-1.125-1.381-1.125-1.507-.75-1.759-.125-.25-.25-.503-.125-.628-.375-.251v-.377h.25v-.251h-1l-.625-.126-.25.251v.503l.25.125-.125.754h-.375l-.25-.377v-.251l-.75.125-7.375.503-.125-.503z"/>
        <path fill="#83CACF" d="M139 43.79l1.5-.378.25-.125v-.126l-.125-.251-.375.126.125-.252v-.25l.25-.126-.25-.126-.25-.126-.375-.25v-.252l-.5-.251V40.9l-.75-.627v-.377l-.125-.126v-.251l.25-.251.125-.377h-.5l-.25.251-.125.377z"/>
        <path fill="#45A757" d="M142.125 30.1l.375 2.511.25.252-.5.628.25.125h.375l.625-.753.375-.126.25-.377h.25l.625-.251.625-.126-.125-.25.375.125.25-.126.375-.125.25-.126h.25v-.502l-.5-1.884-2.625.753-.125-.125z"/>
        <path fill="#DD9806" d="M57.75 42.03c-3.039-.14-10.25-.753-10.25-.753l-1.125 13.941s4.753.41 7.567.552c3.811.193 12.308.453 12.308.453l.25-14.067s-5.455.027-8.75-.125z"/>
        <path fill="#E14F00" d="M18.75 33.993l-11-2.26v.376l-.25.377.25.251v1.13l-.5 1.005v.251l-.125.503.125.125-.375.126-.125.251-.25.126-.375.628v.627l.5.754.125.251.375.754v1.13l-.375.628.125.377.125.879-.25.126.875 1.507.5.502v.502l.25.377.25.503v.25l-.375-.502v.252l.5.753h.125l.375.377.25-1.005.375-.125.5.502.25-.126.25-.125.125.25.25.127h.375l.375.125.375.377h-.125l-.375-.251-.25.125-.375-.125-.625-.251-.25.125-.25-.251-.375.251v.126l.125.25v.252l.25.251v.879l.25.126-.125.126-.375-.252-.375-.502v-.628h-.25l-.125.251.125.251-.125.377.125.503-.125.502.375.754.375.376.5.126.25.502-.125.503-.375.25H10v1.006l.125.25.375.378.125.502.25.125v.503l.25.377v.376l.5.252.125.502.5.251v.377l-.25.251.125.251.5.251v.377l-.125.503v.879l-.25.251.375.126.125.376h.875l.125.252h.375l.25.25.375.126.375-.125.75.628.25.628L17 62l.25.126H18l.375.502-.125.628.25.126.25-.126.375.126.5.627.75.88.375.376.25.754.125.628-.125.502.125.251.25.252v.376l7 .503.125-.126.375.126H29l.125-.251.125-.252v-.502l-.5-.126-.125-.25.125-.377v-.754h.375l.25-.502.125-.503.125-.502v-.251l.25-.252.125-.25.5-.252.375-.377-.625-.628-.125-.753-.25-.503-.125-.25v-.378L16.875 44.166z"/>
        <path fill="#45A757" d="M88.125 67.777l-.25-6.28-.625-3.642v-.125l12.625-.88.375.377v.252l-.625.879-.125.125v.252l1.75-.252.25.126.125.126h-.375v.25l.125.126-.625.377.125.503v.25h-.25l-.125.503-.125.377.25.502h-.375l-.25.503v.376l-.375.252v.376h-.375v1.13l-.375.252v.251l-.5.502.25.252-.125.125-.5.251.125.628-.375.503.25.25-.25.252.25.251v.628l.25.377-.25.251v.377l-8.5.502v-1.884l-.125-.125h-.625l-.125.125-.25-.125z"/>
        <path fill="#F17100" d="M37.505 54.389c2.957.318 8.87.829 8.87.829l-1.625 19.97-6-.503-10.75-5.4.125-.377.25-.377.125-.126.375.126H29l.25-.503v-.502l-.5-.126-.125-.25.125-.377v-.754h.375l.25-.502.25-1.005v-.251l.25-.252.125-.25.5-.252.375-.377-.625-.628-.125-.753-.375-.754v-.879l.25-.125v-.503l-.125-.628.125-.377-.125-.628.125-.25-.125-.378.125-.502.5-.251.375.251.25-.125.125.502h.375l.375-.754.375-2.637s3.42.494 5.13.678z"/>
        <path fill="#8FAA18" d="M41.5 96.161l-3-15.573-.25.125-.5-.25-.375-.252h-.5l-.5.125-.25.126h-.5l-.25-.126h-.625l-.5-.125-.375-.126-.375-.25-.625.25-.125-.125-.5.25-.375-.125v-.25l-.375-.126.25-.252-.625-.125-.5.125h-.375l.125-.25-.25-.252-.375.628-.25-.377.375-.251-.625-.377-.375.377-.5.377h-.75l-.375.25-.375.378-.5.25-.25-.125-.625.754-.375.502-.125.377-.375.377h-.75l-.625-.126-.125.628-.25.251.5.628.75.754.25.502-.125.377.75.377h.625l.125.125-.25.252v.376h.625l.375.126v.377h-.375l-.25-.377-.5.126.375.125.125.377-.25-.126-.25.377-.5-.126-.25-.125-.625-.126-.125-.25.375-.503-.5-.126-.375.251H23l-.25.126.125.251-.5-.125-.625.376-.75.126.25.502.875.503-.375.25.125.378-.125.376.5.377.625.126.375-.126.625.126.125.25.375.127.25-.377.625-.251.375-.126.25.377-.25.377h-.375l.25.376.125.754-.25.502-.75.126-.25-.377-.125.377-.5.377h-.25l-.375-.377-.375.251-.375.377v.502l-.375.126-.5.628v.25l-.375.126.25.252-.25.125.125.377.125.502.25-.125.25.377 1.125.376v.252l-.25.125-.25-.251h-.25l-.375-.251-.5.377.5.628.375.627.375.252.625-.252.375-.25.125-.503v.502l.25.88.125.376-.25.251.125.503-.25.628.375.125 1.125-.753.125.377.375.125.625.754.25-.126-.125-.628.375-.377v.628l.125.252 1.125-.503.25-.251-.5.754-.375.627.375.126-.375.126v1.13l-.25-.126-.625.503-.125.25-.125.503-.25-.125-.75.376-.75.503-.125.377.25.376-.375-.125-.5-.377-.75.251-.625.628-.5.251-.25.252-.5-.126-.375.251-.375-.125-.25.376-.125.126.125.377.375-.126.25-.125.5.125.5-.502h.375l.25-.251h.375l.5-.503.25-.251.25.126-.25.376.5-.25v.376l.25.251.125-.251-.125-.377.5-.251.625-.251.625-.126.375-.502.25-.377.75-.251.375-.377.5-.125.125-.503.5-.502.625-.251.25-.503.625-.125.125-.628.625-.377.125-.251-.5-.377-.375.126.25-.628.375-.503h.375l.375-.628-.25-.377.5-.25.375-.629.25-.502H33l.375-.377h.5l.625.503-.625.125-.25-.251-.5.628h-.25l.125.502-.375.628v.628l.25.126.375-.251-.75.628v.376l.625-.125.375-.251.375-.503.875-.753.625.125.25-.753-.375-.503.375-.753.125.377.625-.126.625.126.625.376-.625.377h1l.375-.502v.502l.75.251.625-.125.75-.126h.625l.375.126.625.25.5-.501.375-.126v.502l-.25.251 1.125.377 1 .503.625.376.375.126.5-.251-.625-.628.5-.251.375.628.375.125.25.126-1-1.633 1.25 1.256.25.502h-.625l-.75.126-.125.628.5.502.625.628.75.754.625.377-.5-1.13-.625-.754.625.502.5-.753-.5-.754.625.251.375.628.375.377-.625.126-.375.376.5.754.25.377.25-.503.5-.628.125.754-.25.879.625.88.5.501.25-.502.5.126-.375-.628-1-1.005v-.502l.625.628.625.502.625.628v-.88l.625.88.375-1.005-.375-.753-.125-.503h-.5l-1.125-.376h-.5l-.5-.754-1.625-1.507-.5-.503-.625-.25-.625-.503-.5-.628-.75.502v.754l-.625.502-.25-.502-1.25-.628-.375-.251v-.628l-.625.251-.125.251H41.5zm-42.875 5.652l-.25-.377-.375-.126v.252l.25.125.375.126zm4 3.642v.251h.25l-.25-.251zm-.75-.628l-.25.251-.25.251.625-.125-.125-.377zm.875 1.256l.375.502.125.251-.25-.125-.375-.502.125-.126zm1.125-.126h-.25v.252l.375-.126-.125-.126zm2.375 1.256l-.25-.25h-.125l.125.376.25-.126zm1.875.503h-.5l-.125-.377-.375.251-.25.251h.75l.5-.125zm2.875.502l-.375-.126-.375-.125.125-.377h-.5l-.375.251-.875-.125.375.25h.75l.75.252h.5zm2.625-.251l-.125.251h.375l-.25-.251zm1.125-.126h-.375l.25.251.125-.25zm1.875-.628l-.375.126v.251h-.375l-.25.377-.375.251.75-.251.25-.251.625-.126-.25-.377zm1.5-.502h-.5v.377l-.125.376-.5.126.25.251.625-.125.25-.377.5-.126-.25-.25-.25-.252zm1.125-.251l-.25.25-.25-.125.125.377.375-.126.5.252.25-.252-.625-.125-.125-.251zm12.875-6.405l-.125.502h.625l.125.251-.625.126-.25.25h.375l-.125.629h.25l-.25.377-.625-.252.5.377h-.375v.251l-.375.377H31l-.375.377.125.377h-.625l.5-.628-.375-.126-.125-.502-.125-.377.5-.251.375.251-.25-.628h.5l.125-.377.5-.377.375-.627z"/>
        <path fill="#960D0D" d="M106 61.498l.125.25.25.126v10.801l.75 5.024h.5l.25.251H108v-.753l.125-.754.5.377-.125.502.25.251.5.503.375-.126-.125-.25h.25l.375-.503-.125-.252v-.502l-.375-.125-.375-.377.125-.628 7.75-.88-.125-.376-.375-.377.125-1.256-.5-.628v-.628l.25-.25v-.629l.375-.377-.375-.125v-.503l-.375-.502-.5-1.13-2.25-7.034z"/>
      </g>
    </svg>

    <svg id="map-col" xmlns="http://www.w3.org/2000/svg" width="160" height="120" viewBox="0 0 160 120">
      <g fill="none" fill-rule="evenodd">
        <g fill="#AED7FA" stroke="#FDFAFA">
          <path stroke-width=".648" d="M81.425 54.88c-1.356-.68-1.921-2.38-3.98-1.968-1.396.28-4.57.362-5.593 1.389-1.521 1.525-5.176 7.797-4.383 10.183.323.972 1.029 2.065 1.441 2.893.523 1.049 4.01 3.192 5.421 2.72.92-.307 2.533-1.333 3.576-.81.57.286.813 1.105 1.21 1.504.976.979.368 3.341.981 4.571.14.28.503 1.363.346 1.678-.498 1-1.193 2-.922 3.356.302 1.517 1.58 2.746 1.845 4.34.148.893.6 4.294 1.384 4.687 3.975 1.994 7.351-3.21 9.4-5.266.691-.693-.385-2.988.058-3.876.574-1.151 1.754-1.983 2.134-3.125.1-.303-1.059-1.546-1.269-1.967-.565-1.135 2.904-4.398 3.23-4.398.948-.058 2.316-4.85 1.903-5.265-.861-.864-3.432.55-4.441-.463-2.092-2.099-3.027-7.84-4.729-9.547-.333-.334-3.035-.413-3.575-.52-1.066 0-3.09.358-4.037-.117zM97.517 78.023c-2.432.84-2.854 5.928-1.233 7.606.176.182.77-2.175.897-2.439.7-1.45 1.897-3.956.336-5.167z"/>
          <path stroke-width=".5" d="M80.45 23.402c-.098.389-.515 1.817-.342 2.164.235.471 1.374-.024 1.763.17 2.433 1.219 6.278-2.505 2.616-2.505h-1.65c-.827 0-1.547.05-2.388.17z"/>
          <path stroke-width=".648" d="M102.862 27.042c-.576.387-1.14.738-1.58 1.182-.309.312-1.98 1.959-1.696 2.246.858.867 4.24-1.92 4.914-2.601.419-.423 1.43-.321 1.813-.71.025-.024.025-.566 0-.59-.518-.524-3.15.36-3.451.473z"/>
          <path stroke-width=".5" d="M66.04 34.443h1.815c3.334 0 1.268 1.74.397 2.643-.348.36-4.923-.189-3.63-1.527.37-.383.755-.632 1.418-1.116zM73.889 38.783c-2.121-.687-.29 2.056-.29 2.991 0 .395-.77 1.68-.465 1.976.057.055 3.415-1.083 2.555-1.92-.692-.672-1.367-2.047-1.8-3.047zM71.723 42.258c-.368-1.23-1.117.626-.953 1.356.21.938 1.347.834.953-1.356z"/>
          <path stroke-width=".5" d="M73.75 45.44c-.17.684.297 2.7-.115 3.111-1.188 1.185-2.278-1.344-3.005 1.556-.71 2.836 2.73 3.156 4.276 1.613 1.079-1.075-.52-2.593 2.08-3.457 1.46-.484 2.325.888 3.468 1.268 1.227.408 1.794-.575 2.658-.288 1.476.49 2.821 1.82 4.392 1.037.743-.37.094-2.048.867-2.305.62-.206 2.607.043 2.889-.518.714-1.424-3.295-1.9-2.485-2.709 1.13-1.125 3.24-2.197 4.045-3.802.68-1.357.317-2.992.694-4.495.127-.505.486-1.91.23-2.42-.432-.863-3.032-1.433-3.986-1.67-3.006-.75-4.972-1.872-8.148-.289-.687.342-1.274 2.942-1.792 3.63-1.102 1.466-3.019 1.355-1.849 3.688.118.235-.064.8.116.98.5.498 1.651-.6 1.791-.462.574.573-.79 1.095.925 1.095.5 0 1.459.159 1.733-.115.189-.188.244-1.235.405-1.556.108-.215.981-.52.751-.98-.313-.623-.786-1.07-.578-1.9.103-.413 1.684-2.066 2.312-1.441.741.74-1.29 1.673-.983 2.593.28.839 2.167.431 1.907 1.728-.547 2.73-5.71 2.617-7.397 3.457-.296.148-1.416-.086-1.56.058-.32.319-.005 1.28-.23 1.729-.043.084-2.827.835-3.41.864z"/>
          <path stroke-width=".648" d="M93.277 42.636c-.507 1.017-2.548 1.088-2.99 1.975-.163.325 1.064.93 1.223 1.089.732.733 2.714 3.215 2.175 4.833-.278.835-7.047-.024-6.117 1.839.723 1.448 3.186.196 4.01 1.02.602.604-.739 3.482-.068 4.154 2.496 2.5 1.342 8.077 6.321 7.08 2.033-.408 2.726-1.233 4.01-2.52.9-.9.21-4.24 2.923-3.335 4.053 1.353 3.467 3.337 5.098 6.603.383.767.251 2.053.801 2.583.55.53 1.57-3.723 1.918-4.42.874-1.752 2.448-2.317 3.806-3.677.094-.094.355.083.408.136 1.124 1.126.842 3.158 1.903 4.221 1.258 1.26 3.357 1.252 4.554 2.451.455.068.862.794 1.36.545.027-.014 0-.474 0-.477 0-1.35-1.163-3.458-.544-4.697.366-.734 1.5-.707 2.175-1.158 1.902-1.27 3.457-2.781 4.894-4.22.988-.99-.164-4.113-.884-4.834-.025-.025-.246-.434-.136-.545 1.086-1.087 3.213 1.82 3.67 1.362.492-.492-.35-1.604.409-2.11 1.16-.775 2.838-.937 3.806-1.907.555-.556.738-2.003 1.495-2.382.418-.21 1.335-.316 1.7-.681 1.07-1.073-1.6-2.251-1.972-2.996-.7-1.404.905-2.328 1.904-2.995 1.405-.938 2.8-.157 4.35-.545.553-.138 4.015-1.415 4.146-1.02.326.978-1.385 1.26-1.971 1.701-1.37 1.03-1.58 3.115-.34 4.357.369.37 2.5-3.038 2.719-3.404.326-.544.883-1.185.883-1.77 0-.115.017-.212.136-.272 1.246-.624 8.32-3.773 8.769-4.221.472-.473-.856-2.002-1.224-1.634-.764.766-4.574.44-5.574.272-4.296-.717-8.43-1.933-12.71-2.79-3.855-.773-7.603-1.43-11.555-1.43-.397 0-3.707.335-3.874 0-.296-.592 1.833-.96 1.495-1.975-.252-.756-3.726-1.501-4.554-1.225-3.729 1.245-7.484 3.608-11.623 3.608-1.135 0-2.996-.644-3.874-.204-1.396.699-2.167 1.79-3.943 2.383-2.914.972-5.463.23-7.545 2.314.82 3.286-.36 6.507-1.563 8.918zM120.278 22.677c-.585-.187-1.298-1.916-2.176-1.496-.527.252.812 3.072 1.292 3.187 1.97.471 2.82-.368.884-1.691z"/>
          <path stroke-width=".648" d="M141.705 48.406c-1.639.55-2.105 2.551-2.75 3.853-.62 1.249-2.17 1.633-3.221 2.163-.363.183-.08 1.143.201 1.285.958.482 1.645-.863 2.348-1.217 3.175-1.6 2.826-2.683 3.422-6.084zM121.651 67.933c-1.262-1.882-1.437 2.247-1.3 2.926.304 1.517 1.376 4.58 3.217 5.037.583.145 1.541.154 2.054.409.332.165 1.898 1.107 2.19.816.91-.904-3.457-2.62-3.833-2.994-2.222-2.21 1.339-3.688-2.328-6.194zM129.31 68.291c-1.085 0-1.565 1.38-1.995 2.22-.24.471-1.07.777-1.375 1.076-.561.549.99 2.2 1.306 2.354.481.235 1.004-.27 1.445-.27.352 0 1.943.253 2.132.068.42-.41-.963-2.397-.963-2.96 0-1.253.187-1.135-.55-2.488zM140.015 73.505c-.471-.35-4.03-1.544-2.993 0 .683 1.016 3.778 1.975 4.83 2.497.273.135 1.751 1.637 2.041 1.35.936-.929-3.046-3.653-3.878-3.847zM134.466 78.66c-1.249 3.133-5.767 2.418-7.097 5.088-.311.625-.27 1.652-.27 2.374 0 .644-.063 1.3.135 1.9 1.814 5.46 5.932-1.362 8.922-.611 2.166.543 4.864 5.46 7.502 4.137 1.298-.651.904-2.478 1.216-3.73.176-.707 1.59-2.17 1.217-2.917-.612-1.228-2.648-1.584-3.312-2.917-.94-1.888-1.29-3.665-3.312-4.68-1.168-.587-3.898 1.03-5.001 1.356z"/>
          <path stroke-width=".648" d="M134.466 78.66c-1.249 3.133-5.767 2.418-7.097 5.088-.311.625-.27 1.652-.27 2.374 0 .644-.063 1.3.135 1.9 1.814 5.46 5.932-1.362 8.922-.611 2.166.543 4.864 5.46 7.502 4.137 1.298-.651.904-2.478 1.216-3.73.176-.707 1.59-2.17 1.217-2.917-.612-1.228-2.648-1.584-3.312-2.917-.94-1.888-1.29-3.665-3.312-4.68-1.168-.587-3.898 1.03-5.001 1.356zM142.976 93.255c-2.806 0-.938 3.807 0 0zM157.167 92.56c-.562-.183-.911-1.735-1.67-1.364-.396.195-5.262 7.642-2.643 6.616 1.327-.52 1.325-2.299 2.505-3.07.812-.53 1.261-1.324 1.808-2.182z"/>
          <path stroke-width=".5" d="M157.969 86.068c-.694 0-1.712-.139-1.368.884.08.239 1.661 2.089 1.915 1.836.474-.47-.457-2.54-.547-2.72zM44.007 65.542c-.782 0-2.437-.055-2.772.62-.239.48-.015 2.288-.308 2.584-1.082 1.088-1.883 2.893-2.362 4.34-.192.577 1.611 6.58 1.95 6.922.543.546 1.59.773 2.157 1.344.756.76.445 4.548.103 5.58-.437 1.318.19 3.232-.41 4.443-1.738 3.495-1.61 9.885 1.745 11.572.934.47.41-3.501.41-4.03 0-2.361 1.06-4.165 2.465-5.58 1.204-1.21 4.106-1.855 4.93-3.512.591-1.191 1.638-4.646 2.361-5.373.94-.946 2.31-1.084 3.081-1.86.552-.556-.31-2.478.205-2.997.707-.71 2.856-2.52 1.952-4.34-.92-1.848-2.876-.517-4.21-1.86-2.317-2.33-4.664-5.6-7.497-7.026-1.115-.561-2.5-.233-3.8-.827z"/>
          <path stroke-width=".5" d="M44.007 65.542c-.782 0-2.437-.055-2.772.62-.239.48-.015 2.288-.308 2.584-1.082 1.088-1.883 2.893-2.362 4.34-.192.577 1.611 6.58 1.95 6.922.543.546 1.59.773 2.157 1.344.756.76.445 4.548.103 5.58-.437 1.318.19 3.232-.41 4.443-1.738 3.495-1.61 9.885 1.745 11.572.934.47.41-3.501.41-4.03 0-2.361 1.06-4.165 2.465-5.58 1.204-1.21 4.106-1.855 4.93-3.512.591-1.191 1.638-4.646 2.361-5.373.94-.946 2.31-1.084 3.081-1.86.552-.556-.31-2.478.205-2.997.707-.71 2.856-2.52 1.952-4.34-.92-1.848-2.876-.517-4.21-1.86-2.317-2.33-4.664-5.6-7.497-7.026-1.115-.561-2.5-.233-3.8-.827z"/>
          <path stroke-width=".648" d="M49.623 19.608c0 2.663-5.998 4.87-5.038 6.793.569 1.138 2.722-.362 3.496.412 1.327 1.329 1.28 3.856 2.364 4.941.472.473 1.726-.25 2.16.618 1.005 2.014-1.712 3.33 2.055 7.102.357.357 1.144-1.467 1.234-1.647.501-1.004 1.752-2.627 2.673-3.088 1.815-.909 5.26-1.973 6.477-3.19 1.457-1.46.309-5.15 1.13-6.795.412-.825 3.214-2.622 2.57-3.911-.619-1.24-3.681-.381-5.037-.72-4.153-1.04-9.95-1.645-14.084-.515z"/>
          <path stroke-width=".5" d="M30.605 20.956c2.394-.65 6.275.724 8.346-.308.516-.257 2.041-.718 2.576-.718.826 0 2.719-.988 3.504-.206.26.26-.38.755-.413.821-.816 1.627-2.276 3.304-3.09 4.927-.367.73-1.959.533-1.959 1.13 0 .206.019.447.103.615 1.212 2.415 4.413 3.472 6.286 5.337.135.134-.05.715-.103.821-1.054 2.101-.262 4.817.515 6.364.572 1.139 2.661 1.83 3.607 2.771.498.497-.185 1.87.309 2.361.206.206 1.453 1.006 1.133 1.642-.097.195-.303.206-.515.206-2.518 0-1.537-.804-2.267-2.258-.201-.402-2.989.103-3.194.308-.936.932 2.525 1.538 1.854 2.873-.669 1.334-3.029-.841-3.915.924-.872 1.737-1.685 4.142-3.091 5.543-.342.34-1.17-.068-1.546.308-.786.783.906 3.409.103 4.208-.22.219-.557-.35-.618-.41-1.062-1.059-.742-1.55-2.37-2.361-.212-.106-1.358.793-1.752.923-1.977.657-3.4-.01-3.4 2.361 0 .902.194 2.663 1.03 3.08 1.444.719 1.438-2.294 3.091-1.746 1.454.483.303 2.348.825 3.388.55 1.096 1.455-.193 2.164.513.512.51-.766 1.29-.206 1.847.466.465 3.392 1.138 2.885 1.643-1.05 1.045-4.344-2.01-4.637-2.156-.62-.309-7.36-3.02-7.42-3.08-1.305-1.3-1.288-3.747-2.781-5.234-.058-.057-.883-1.173-1.03-1.026-.312.31.79 2.119.412 2.874-.073.144-3.467-1.98-3.813-2.669-1.531-3.05-2.113-7.75-4.019-9.648-.565-.564 1.124-1.447.619-1.95-.397-.396-1.588-.042-1.958-.41-2.746-2.736-2.943-4.968-6.904-5.954-2.471-.615-4.958 2.765-5.564 2.463-.747-.371-2.79-2.483-3.091-3.387-.316-.944 1.313-.976.927-1.745-.375-.746-1.6-2.354-1.133-3.284.188-.375.23-1.963.618-2.155 3.812-1.9 8.987 2.226 12.983 1.231.51-.127 5.381-5.155 6.182-5.953.508-.506 3.087.384 3.607.513 2.463.614 6.486 2.059 8.45.103.784-.782-1.34-4.505-1.34-5.44zm5.247 14.757c-.734.244-1.361 1.56-1.736 1.935-.575.574-2.216.173-2.757.713-.024.024 0 .068 0 .101 0 1.158 4.63 1.664 5.616 2.649.909.906.972 3.234 2.247 3.87.735.366.235-1.896.408-2.24.287-.574 1.434-2.432 1.225-3.056-.15-.45-.011-.108-.204-.204-2.057-1.026-2.984-2.36-4.799-3.768z"/>
          <path stroke-width=".648" d="M37.703 60.215c1.63.404 1.276 1.267 2.177 2.162.098.098 3.384.447 3.42.412.666-.663-1.602-1.535-1.762-1.854-.195-.388.006-2.622-.31-2.78-.428-.212-.574 1.497-.726 1.648-.21.207-2.503.331-2.799.412zM4.578 63.003c-.359-.568-2.493-3.013-1.614-3.943.286-.302.558.376.605.427.805.85 1.81 2.426 1.009 3.516z"/>
          <path stroke-width=".5" d="M111.425 68.976c-.064-.242.102-.63.33-.63.229 0 .413.704.203.786-.21.083-.47.087-.533-.156z"/>
        </g>
        <path fill="#960D0D" fill-rule="nonzero" d="M39 20c12.403 0 10.54 11.521 8.586 15.5C45.632 39.479 39 51 39 51s-6.636-11.521-8.587-15.5C28.462 31.521 26.596 20 39 20zm0 6a4 4 0 1 0 0 8 4 4 0 0 0 0-8z"/>
        <path fill="#667B0C" fill-rule="nonzero" d="M111.5 38c8.062 0 6.851 7.433 5.581 10-1.27 2.567-5.581 10-5.581 10s-4.314-7.433-5.582-10c-1.268-2.567-2.48-10 5.582-10zm0 4a2.5 2.5 0 1 0 0 5 2.5 2.5 0 0 0 0-5z"/>
        <path fill="#DD9806" fill-rule="nonzero" d="M141.5 44c4.34 0 3.69 4.088 3.005 5.5-.684 1.412-3.005 5.5-3.005 5.5s-2.323-4.088-3.006-5.5c-.683-1.412-1.335-5.5 3.006-5.5zm0 2a1.5 1.5 0 1 0 0 3 1.5 1.5 0 0 0 0-3z"/>
        <path fill="#960D0D" fill-rule="nonzero" d="M80 58c4.961 0 4.216 4.831 3.435 6.5C82.653 66.169 80 71 80 71s-2.655-4.831-3.435-6.5C75.785 62.831 75.038 58 80 58zm0 3a1.5 1.5 0 1 0 0 3 1.5 1.5 0 0 0 0-3z"/>
        <path fill="#8FAA18" fill-rule="nonzero" d="M84 37c3.72 0 3.162 3.716 2.576 5C85.99 43.284 84 47 84 47s-1.991-3.716-2.576-5c-.586-1.284-1.145-5 2.576-5zm0 2a1 1 0 1 0 0 2 1 1 0 0 0 0-2z"/>
        <path fill="#E14F00" fill-rule="nonzero" d="M25 34c3.72 0 3.162 3.345 2.576 4.5C26.99 39.655 25 43 25 43s-1.991-3.345-2.576-4.5C21.838 37.345 21.279 34 25 34zm0 2a1 1 0 1 0 0 2 1 1 0 0 0 0-2z"/>
        <path fill="#AD4106" fill-rule="nonzero" d="M44 66c3.72 0 3.162 2.973 2.576 4C45.99 71.027 44 74 44 74s-1.991-2.973-2.576-4c-.586-1.027-1.145-4 2.576-4zm0 2a1 1 0 1 0 0 2 1 1 0 0 0 0-2z"/>
        <path fill="#E14F00" fill-rule="nonzero" d="M130.5 79c3.1 0 2.635 2.973 2.147 4-.489 1.027-2.147 4-2.147 4s-1.66-2.973-2.147-4c-.488-1.027-.954-4 2.147-4zm0 2a1 1 0 1 0 0 2 1 1 0 0 0 0-2z"/>
      </g>
    </svg>

    <svg id="packed-bubble-chart-col" xmlns="http://www.w3.org/2000/svg" width="61" height="60" viewBox="0 0 61 60">
      <g fill="none" fill-rule="evenodd" transform="translate(.21)">
        <path fill="#C6C6C6" fill-rule="nonzero" d="M1.79 59.022h59.452v1h-60V60H.79V0h1v59.022z"/>
        <circle cx="31" cy="30" r="28" stroke="#C6C6C6"/>
        <circle cx="22.289" cy="50.5" r="4.5" fill="#F59736" fill-rule="nonzero"/>
        <circle cx="52.289" cy="25.5" r="6.5" fill="#F59736" fill-rule="nonzero"/>
        <circle cx="26.289" cy="7.5" r="4.5" fill="#F59736" fill-rule="nonzero"/>
        <circle cx="21.289" cy="14.5" r="3.5" fill="#50B38B" fill-rule="nonzero"/>
        <circle cx="13.789" cy="15" r="3" fill="#F59736" fill-rule="nonzero"/>
        <circle cx="10.289" cy="24.5" r="5.5" fill="#F59736" fill-rule="nonzero"/>
        <circle cx="24.289" cy="25.5" r="7.5" fill="#C9E5FE" fill-rule="nonzero"/>
        <circle cx="14.289" cy="38.5" r="8.5" fill="#4596B4" fill-rule="nonzero"/>
        <circle cx="39.289" cy="15.5" r="9.5" fill="#F96657" fill-rule="nonzero"/>
        <circle cx="38.289" cy="41.5" r="13.5" fill="#26D990" fill-rule="nonzero"/>
      </g>
    </svg>

  </defs>
</svg>

