<svg xmlns="http://www.w3.org/2000/svg" width="140" height="140" viewBox="0 0 140 140">
    <g fill="none" fill-rule="evenodd">
        <circle cx="70" cy="70" r="70" fill="#AC145A" fill-rule="nonzero"/>
        <path fill="#FFF" d="M53 38h-6.57C42.49 38 39 41.002 39 44.942v62.556c0 3.94 3.49 6.502 7.43 6.502h45.14c3.94 0 7.43-2.563 7.43-6.502V44.942C99 41.002 95.51 38 91.57 38H85"/>
        <path fill="#FFF" stroke="#FFF" stroke-width="4" d="M73.492 18.002h-8.98c-1.562 0-3.231 1.543-2.997 3.405l1.791 14.169c.18 1.43 1.468 2.426 2.997 2.426H71.7c1.53 0 2.818-.957 2.997-2.388l1.793-14.267c.232-1.85-1.49-3.345-2.998-3.345z" opacity=".5"/>
        <path fill="#AC145A" d="M86.568 80.72v-2.49c0-.524-.32-.995-.801-1.18-5.656-2.186-11.935-4.9-12.462-6.591v-1.774c1.173-1.2 2.099-2.874 2.646-4.834a2.875 2.875 0 0 0 .554-4.169v-3.971c0-4.1-2.283-6.907-7.502-6.907-5.085 0-7.505 2.807-7.505 6.907v3.973a2.876 2.876 0 0 0 .554 4.166c.547 1.96 1.473 3.634 2.647 4.835v1.774c-.526 1.689-6.806 4.403-12.462 6.59a1.264 1.264 0 0 0-.801 1.18v2.49" opacity=".5"/>
        <path stroke="#AC145A" stroke-width="4" d="M71.436 101.002h15.132M51.436 101.002h8M39.002 89.002h60" opacity=".5"/>
    </g>
</svg>
