<svg xmlns="http://www.w3.org/2000/svg" xmlns:xlink="http://www.w3.org/1999/xlink" width="140" height="140" viewBox="0 0 140 140">
    <defs>
        <circle id="a" cx="99.476" cy="98.375" r="70"/>
    </defs>
    <g fill="none" fill-rule="evenodd" transform="translate(-29 -28)">
        <circle cx="98.98" cy="98.98" r="70" fill="#26D990" fill-rule="nonzero" transform="rotate(46 98.98 98.98)"/>
        <mask id="b" fill="#fff">
            <use xlink:href="#a"/>
        </mask>
        <path fill="#FFF" d="M138.274 117.646c-3.447-4.295-9.844-13.49-9.844-19.64V81.61c0-16.88-12.557-30.61-28.604-30.61-16.054 0-28.511 13.73-28.511 30.61v16.396c0 6.052-6.752 14.968-10.05 19.398-4.193 5.63-3.69 10.327-2.121 13.477 1.387 2.765 4.847 3.124 7.71 3.124h17.105c.006 8.836 7.13 15.995 15.917 15.995 8.786 0 15.923-7.159 15.929-15.995h17.504c1.817 0 6.079 0 7.541-3.112 1.481-3.156 2.321-7.153-2.576-13.247zM99.5 144c-5.236 0-9.488-4.474-9.5-10h19c-.006 5.526-4.258 10-9.5 10zm33.529-16.008H66.824c-.46 0-.837.018-1.153 0-1.953 0-2.721-1.813.657-6.383 3.626-4.896 11.262-14.99 11.262-23.125V82.143C77.59 68.829 87.16 58 99.663 58c12.502 0 22.165 10.829 22.165 24.143v16.341c0 8.412 7.184 18.611 11.244 23.612 2.517 3.115 2.424 5.89.564 5.89-.18 0-.384.006-.607.006z" mask="url(#b)"/>
        <path stroke="#FFF" stroke-width="3" d="M109.698 91.704c2.899 5.198 12.18 9 23.057 9 10.878 0 20.043-3.802 22.943-9" mask="url(#b)" opacity=".5" transform="rotate(-93 132.698 96.204)"/>
        <path stroke="#FFF" stroke-width="3" d="M124.938 93.132c2.269 3.466 9.532 6 18.045 6 8.513 0 15.686-2.534 17.955-6" mask="url(#b)" opacity=".5" transform="rotate(-93 142.938 96.132)"/>
    </g>
</svg>
