<svg xmlns="http://www.w3.org/2000/svg" width="140" height="140" viewBox="0 0 140 140">
    <g fill="none" fill-rule="evenodd">
        <circle cx="70" cy="70" r="70" fill="#B45800" fill-rule="nonzero"/>
        <path fill="#FFF" d="M40 91.469c21.487 7.335 45.975 6.293 45.975 6.293 9.816 0 6.895-12.672-.2-12.672L40.06 54 40 91.469z" opacity=".5"/>
        <path fill="#FFF" d="M40 53.954S60.258 38.03 58.805 21.372c-1.102-12.637 22.356-2.973 9.299 28.925h28.948c8.074 0 8.05 12.092 0 12.092h-.626c8.14 0 7.926 12.091 0 12.091h-4.048c8.072 0 8.05 12.092 0 12.092h-4.675M15 51h24v48H15z" opacity=".5"/>
        <path fill="#FFF" d="M50.49 80.991l-11.833-.239-3.884-11.04c-.335-.953-1.681-.946-2.012 0l-3.883 11.04-11.833.24c-1.01.02-1.428 1.306-.618 1.916l9.422 7.06-3.423 11.18c-.298.966.799 1.76 1.624 1.19l9.717-6.683 9.718 6.683c.83.57 1.921-.229 1.624-1.19l-3.425-11.18 9.422-7.06c.81-.609.393-1.895-.617-1.917zM90.49 81.991l-11.833-.239-3.884-11.04c-.335-.953-1.681-.946-2.012 0l-3.883 11.04-11.833.24c-1.01.02-1.428 1.306-.618 1.916l9.422 7.06-3.423 11.18c-.298.966.799 1.76 1.624 1.19l9.717-6.683 9.718 6.683c.83.57 1.921-.229 1.624-1.19l-3.425-11.18 9.422-7.06c.81-.609.393-1.895-.617-1.917zM129.49 81.991l-11.833-.239-3.884-11.04c-.335-.953-1.681-.946-2.012 0l-3.883 11.04-11.833.24c-1.01.02-1.428 1.306-.618 1.916l9.422 7.06-3.423 11.18c-.298.966.799 1.76 1.624 1.19l9.717-6.683 9.718 6.683c.83.57 1.921-.229 1.624-1.19l-3.425-11.18 9.422-7.06c.81-.609.393-1.895-.617-1.917z"/>
    </g>
</svg>
