<svg xmlns="http://www.w3.org/2000/svg">
  <defs>
    <svg id="calendar-events" xmlns="http://www.w3.org/2000/svg" width="24" height="24" viewBox="0 0 24 24">
      <path fill="currentColor" fill-rule="nonzero" d="M23.236 12l.616 1.072c-3.367 3.056-6.579 7.341-7.345 9.481 0 .154-.152.154-.152.154h-.157L11 17.66c0-.15 1.53-1.374 1.53-1.374l2.907 2.139c1.068-1.377 4.13-4.13 7.799-6.425zm-3.484-8.75c.689.002 1.247.56 1.248 1.25l.037 7.888-1.224 1.013-.064-8.901h-3.125v1.875a.625.625 0 1 1-1.25.001V4.5h-8.75v1.875a.625.625 0 1 1-1.25.001V4.5H2.25v16.25l10.517-.11 1.217 1.244L2.25 22c-.69 0-1.249-.56-1.25-1.25V4.5c.001-.69.56-1.249 1.25-1.25h3.125v-.625a.625.625 0 1 1 1.25 0v.625h8.75v-.625a.625.625 0 0 1 1.25 0v.625h3.127zM6.135 10.125h.98c.42 0 .76.34.76.76v.98c0 .42-.34.76-.76.76h-.98a.76.76 0 0 1-.76-.76v-.98c0-.42.34-.76.76-.76zm4.375 0h.98c.42 0 .76.34.76.76v.98c0 .42-.34.76-.76.76h-.98a.76.76 0 0 1-.76-.76v-.98c0-.42.34-.76.76-.76zm4.375 0h.98c.42 0 .76.34.76.76v.98c0 .42-.34.76-.76.76h-.98a.76.76 0 0 1-.76-.76v-.98c0-.42.34-.76.76-.76zM6.135 14.5h.98c.42 0 .76.34.76.76v.98c0 .42-.34.76-.76.76h-.98a.76.76 0 0 1-.76-.76v-.98c0-.42.34-.76.76-.76z"/>
    </svg>

    <svg id="calendar-funnel" xmlns="http://www.w3.org/2000/svg" width="24" height="24" viewBox="0 0 24 24">
      <g fill="none" fill-rule="evenodd">
          <path fill="currentColor" d="M13.588 8l.928.993-3.47.006-1.273.004-1.016.004-1.99.007 5.42 8.068.011 4.944 1.707-1.221.013-3.736 5.217-8.099-1.374.037L18.798 8H21s-.054.259-.154.382l-5.928 9.075v3.888L11.108 24v-6.543L5.156 8.382C5.054 8.26 5 8 5 8h8.588z"/>
          <path stroke="currentColor" stroke-width="1.2" d="M9.5 0v6M6 2l3.5 4L13 2M16 2v7M12.5 5L16 9l3.5-4"/>
      </g>
    </svg>

    <svg id="calendar-retention" xmlns="http://www.w3.org/2000/svg" width="24" height="24" viewBox="0 0 24 24">
      <g fill="none" fill-rule="evenodd" stroke="currentColor">
        <path stroke-width="1.2" d="M21.102 9.301c-1.15-3.903-4.832-6.758-9.148-6.758-4.315 0-7.952 2.855-9.102 6.758"/>
        <path stroke-width="1.2" d="M22.413 5.961l-1.31 3.34-3.257-1.251M2.88 14.563c1.15 3.903 4.832 6.758 9.148 6.758s7.952-2.855 9.102-6.758"/>
        <path stroke-width="1.2" d="M1.57 17.903l1.31-3.34 3.256 1.251"/>
        <path stroke-width="1.123" d="M16.795 14.02c-1.45-.622-3.057-1.394-3.193-1.876v-.505c.3-.341.538-.818.678-1.376.337-.263.421-.805.142-1.187v-1.13c0-1.168-.585-1.967-1.922-1.967-1.302 0-1.922.8-1.922 1.967v1.13c-.28.382-.194.924.141 1.187.14.558.378 1.035.679 1.376v.505c-.135.481-1.744 1.254-3.193 1.877a.361.361 0 0 0-.205.336v1.263c0 .198.143.36.319.36h8.362c.176 0 .319-.162.319-.36v-1.263a.36.36 0 0 0-.205-.336z"/>
      </g>
    </svg>

    <svg id="category-default" xmlns="http://www.w3.org/2000/svg" width="24" height="24" viewBox="0 0 24 24">
      <g fill="none" fill-rule="evenodd" stroke="currentColor" stroke-width="1.2">
        <path d="M.5.504h14v3H.5zM9.501 20.505h14v3h-14zM9.501 12.505h14v3h-14zM7.5 5.504v1.533c0 .75.974 1.467 1.724 1.467h5.908c.75 0 1.368.499 1.368 1.249v2.752M16.5 17.505v3"/>
      </g>
    </svg>

    <svg id="category-errors" xmlns="http://www.w3.org/2000/svg" width="24" height="24" viewBox="0 0 24 24">
      <g fill="none" fill-rule="evenodd" stroke="currentColor" stroke-width="1.2">
        <path d="M.5 2.5h23v19H.5zM23.474 7.501H.548M3.488 7.501l5.553-4.946M.548 6.452l4.573-3.897M7.408 7.501l5.554-4.946M11.329 7.501l5.553-4.946M15.249 7.501l5.553-4.946M19.17 7.501l4.304-3.536M8.978 11.476l6.063 6.063M8.978 17.539l6.063-6.063"/>
      </g>
    </svg>

    <svg id="category-orders" xmlns="http://www.w3.org/2000/svg" width="24" height="23" viewBox="0 0 24 23">
      <g fill="none" fill-rule="evenodd" stroke="currentColor" stroke-width="1.2" transform="translate(3.84)">
        <path d="M18.643 14.677l-4.538-4.487a.33.33 0 0 0-.234-.095h-.241l-3.434.017a.332.332 0 0 0-.33.333c.001.225-.043 3.742.116 3.901.072.072 4.543 4.51 4.636 4.55a.33.33 0 0 0 .225.02.397.397 0 0 0 .145-.086l3.657-3.685a.33.33 0 0 0-.002-.468z"/>
        <ellipse cx="11.858" cy="12.15" rx="1" ry="1"/>
        <path d="M14.893 20.674v1.887H.505V5.323h14.388v2.69"/>
        <path d="M11.027 7.21V4.015c0-1.856-1.416-3.536-3.275-3.536h-.058c-1.86 0-3.387 1.68-3.387 3.536V7.21"/>
      </g>
    </svg>

    <svg id="category-sessions" xmlns="http://www.w3.org/2000/svg" width="24" height="24" viewBox="0 0 24 24">
      <g fill="none" fill-rule="evenodd" stroke="currentColor" stroke-width="1.2">
        <ellipse cx="3.031" cy="20.972" rx="2.412" ry="2.425"/>
        <ellipse cx="11.511" cy="20.972" rx="2.412" ry="2.425"/>
        <ellipse cx="20.159" cy="20.972" rx="2.412" ry="2.425"/>
        <path d="M11.511 5.506v13.042M4.623 19.154l6.888-8.247 7.173 8.15"/>
        <ellipse cx="11.511" cy="3.081" rx="2.412" ry="2.425"/>
      </g>
    </svg>

    <svg id="category-subscribers" xmlns="http://www.w3.org/2000/svg" width="24" height="24" viewBox="0 0 24 24">
      <g fill="none" fill-rule="evenodd" stroke="currentColor" stroke-width="1.2">
        <path d="M13.504.51v4h4"/>
        <path d="M17.504 21.523v1.187c0 .436-.354.8-.791.8H1.292a.796.796 0 0 1-.788-.8V1.315A.8.8 0 0 1 1.292.51h12.212c.208 0 .305.09.452.235l3.313 3.268c.15.149.235.285.235.497v2.064M4.437 13.464h6.011M4.437 16.494h6.011M4.437 10.435h6.011"/>
        <path d="M23.298 17.44c-1.621-.665-3.421-1.49-3.573-2.004v-.54c.337-.365.602-.874.76-1.47.376-.28.47-.86.158-1.268v-1.207c0-1.247-.655-2.1-2.151-2.1-1.458 0-2.152.853-2.152 2.1v1.208a.909.909 0 0 0 .159 1.267c.157.596.422 1.105.759 1.47v.54c-.15.513-1.951 1.339-3.573 2.004a.385.385 0 0 0-.23.359v1.35c0 .211.16.383.357.383h9.36c.196 0 .356-.172.356-.384v-1.35a.384.384 0 0 0-.23-.358z"/>
      </g>
    </svg>

    <svg id="category-usage" xmlns="http://www.w3.org/2000/svg" width="24" height="24" viewBox="0 0 24 24">
      <g fill="none" fill-rule="evenodd" stroke="currentColor" stroke-width="1.2">
        <path d="M23.31 13.508c0-6.36-5.233-11.468-11.535-11.067C6.48 2.778 2.128 7.11 1.67 12.519a11.265 11.265 0 0 0 1.605 6.867A2.565 2.565 0 0 0 5.466 20.6h14.005a2.57 2.57 0 0 0 2.195-1.22 11.221 11.221 0 0 0 1.644-5.873zM4.8 13.861h-.839M6.871 8.138l-.632-.647M12.454 5.579v-.822M18.207 8.138l.621-.636M20.084 13.862h.874"/>
        <path d="M11.343 17.25a1.546 1.546 0 0 0 2.22 0 1.633 1.633 0 0 0 0-2.273 1.546 1.546 0 0 0-2.22 0 1.632 1.632 0 0 0 0 2.272zM11.343 14.977L6.94 10.474"/>
      </g>
    </svg>

  </defs>
</svg>

