<svg xmlns="http://www.w3.org/2000/svg" width="24" height="24" viewBox="0 0 24 24" href="data:image">
    <path id="avg-icon" fill="#727272" fill-rule="nonzero" d="M12 24c6.627 0 12-5.373 12-12S18.627 0 12 0 0 5.373 0 12s5.373 12 12 12zm-5.154-9.648H4.15L3.636 16H2l2.78-8h1.425L9 16H7.364l-.518-1.648zM4.41 13.03l2.22-.028L5.394 9.88l-.985 3.15zm7.083.985L13.235 8H15l-2.678 8h-1.654L8 8h1.76l1.732 6.016zM21 14.91c-.088.11-.207.23-.359.356a2.685 2.685 0 0 1-.57.353c-.23.108-.5.2-.81.272-.312.073-.67.11-1.074.11-.475 0-.908-.083-1.3-.249a2.727 2.727 0 0 1-1.008-.73 3.377 3.377 0 0 1-.65-1.181c-.152-.467-.229-1.002-.229-1.605v-.46c0-.602.073-1.138.22-1.607.146-.468.353-.863.62-1.184.269-.32.593-.565.973-.733.38-.167.803-.251 1.268-.251.478 0 .891.063 1.24.19.348.126.64.304.873.532.234.228.417.5.548.818.132.317.218.665.258 1.043h-1.475a2.401 2.401 0 0 0-.141-.532 1.115 1.115 0 0 0-.674-.666 1.678 1.678 0 0 0-.584-.09c-.518 0-.912.207-1.182.622-.269.415-.404 1.031-.404 1.848v.47c0 .817.147 1.433.44 1.85.293.418.722.626 1.288.626.181 0 .34-.012.474-.037.135-.025.25-.056.346-.094.096-.037.176-.078.24-.123.064-.044.116-.088.157-.13v-1.343h-1.379v-1.182H21v3.107z"/>
</svg>
