<svg xmlns="http://www.w3.org/2000/svg" width="24" height="24" viewBox="0 0 24 24" href="data:image">
    <path fill="#727272" fill-rule="nonzero" d="M12 24c6.627 0 12-5.373 12-12S18.627 0 12 0 0 5.373 0 12s5.373 12 12 12zM3.683 9l1.709 5.077L7.092 9h1.8v7H7.517v-1.913l.137-3.303L5.858 16h-.941l-1.791-5.212.137 3.299V16H1.892V9h1.791zm10.163 5.558H11.15L10.636 16H9l2.78-7h1.425L16 16h-1.636l-.518-1.442zm-2.56-.966l2.383-.022-1.23-2.756-1.152 2.778zM19 11.413L20.302 9h1.646l-2.023 3.471L22 16h-1.665L19 13.548 17.665 16H16l2.075-3.529L16.052 9h1.646L19 11.413z"/>
</svg>
