<?xml version="1.0" encoding="utf-8"?>
<!-- Generator: Adobe Illustrator 16.0.0, SVG Export Plug-In . SVG Version: 6.00 Build 0)  -->
<!DOCTYPE svg PUBLIC "-//W3C//DTD SVG 1.1//EN" "http://www.w3.org/Graphics/SVG/1.1/DTD/svg11.dtd">
<svg version="1.1" id="Layer_1" xmlns="http://www.w3.org/2000/svg" xmlns:xlink="http://www.w3.org/1999/xlink" x="0px" y="0px"
	 width="1999px" height="705px" viewBox="0 0 1999 705" enable-background="new 0 0 1999 705" xml:space="preserve">
<g>
	<path fill-rule="evenodd" clip-rule="evenodd" fill="#00C9E9" d="M259.062,429.864c-11.98-44.305-23.99-88.602-35.935-132.915
		c-15.105-56.037-30.161-112.086-45.23-168.132c-2.156-8.02,0.907-11.068,8.971-8.91c96.222,25.755,192.443,51.514,288.661,77.284
		c8.263,2.212,9.27,6.417,3.108,12.643c-13.589,13.731-27.17,27.469-40.754,41.204c-0.766,0.629-1.593,1.198-2.29,1.896
		c-57.648,57.645-115.288,115.297-172.919,172.958c-1.156,1.157-2.609,2.145-2.737,4.017
		C259.642,429.942,259.351,429.928,259.062,429.864z"/>
	<path fill-rule="evenodd" clip-rule="evenodd" fill="#0097D7" d="M259.935,429.908c0.128-1.872,1.581-2.859,2.737-4.017
		c57.631-57.661,115.271-115.313,172.919-172.958c0.697-0.697,1.524-1.267,2.29-1.896c12.027,44.745,24.06,89.487,36.079,134.234
		c8.616,32.076,17.23,64.153,25.799,96.242c0.876,3.282,2.608,6.726-0.615,9.801c-3.18,3.032-6.596,1.229-9.874,0.369
		c-21.84-5.725-43.661-11.521-65.488-17.296c-39.942-10.798-79.888-21.581-119.824-32.402
		C289.271,438.007,274.609,433.937,259.935,429.908z"/>
	<path fill-rule="evenodd" clip-rule="evenodd" fill="#016BD1" d="M259.935,429.908c14.674,4.028,29.336,8.099,44.023,12.078
		c39.936,10.821,79.881,21.604,119.824,32.402c-37.287,37.347-74.563,74.705-111.876,112.025
		c-4.969,4.971-10.041,3.621-11.855-3.099c-5.37-19.886-10.667-39.791-16.009-59.685c-0.465-1.732-0.551-3.638-2.018-4.972
		c-0.017-1.822-0.247-3.57-0.731-5.374c-4.242-15.797-8.269-31.651-12.522-47.445c-3.179-11.804-6.598-23.542-9.909-35.31
		c-0.124-0.278-0.057-0.499,0.2-0.665C259.351,429.928,259.642,429.942,259.935,429.908z"/>
	<path fill-rule="evenodd" clip-rule="evenodd" fill="#484848" d="M1060.697,412.553c-6.714,0-13.482,0-20.579,0
		c0-55.783,0-111.357,0-167.245c6.835,0,13.759,0,21.245,0c0,22.501,0,45.043,0,67.499c1.67,0.277,1.904-0.716,2.286-1.326
		c8.735-13.979,21.46-19.912,37.682-18.479c15.619,1.379,27.27,8.956,34.499,22.98c3.642,7.063,5.631,14.729,5.717,22.577
		c0.269,24.478,0.099,48.96,0.099,73.822c-7.112,0-14.156,0-21.218,0c-0.905-1.817-0.476-3.672-0.479-5.454
		c-0.036-19.498-0.019-38.996-0.026-58.494c-0.003-6.029-0.711-11.952-2.754-17.669c-4.024-11.263-12.3-17.479-23.879-17.919
		c-13.734-0.521-23.419,5.011-28.354,16.163c-2.896,6.542-3.598,13.473-3.611,20.504c-0.038,19.164-0.001,38.329-0.034,57.493
		C1061.286,408.801,1061.714,410.671,1060.697,412.553z"/>
	<path fill-rule="evenodd" clip-rule="evenodd" fill="#484848" d="M1545.52,415.483c-28.491,0.015-50.871-20.707-54.502-50.247
		c-1.636-13.309-0.635-26.267,4.431-38.738c8.779-21.62,27.618-34.225,50.509-33.981c23.187,0.247,41.913,13.27,50.039,35.333
		c7.04,19.115,6.622,38.232-1.938,56.815C1585.003,404.32,1567.108,415.473,1545.52,415.483z M1512.785,354.776
		c-0.141,8.047,1.335,16.332,5.367,24.006c5.775,10.994,14.921,16.715,27.379,16.697c12.479-0.018,21.915-5.718,27.237-16.872
		c7.731-16.202,7.745-32.884,0.052-49.105c-5.292-11.16-14.67-16.928-27.164-16.983c-12.253-0.056-21.303,5.526-27.18,16.218
		C1514.121,336.66,1512.649,345.269,1512.785,354.776z"/>
	<path fill-rule="evenodd" clip-rule="evenodd" fill="#484848" d="M1244.532,353.08c0.357-18.238,5.735-35.239,20.527-48.254
		c24.472-21.532,75.882-17.685,87.843,31.438c3.259,13.386,2.847,26.792-1.214,39.956c-7.678,24.895-28.257,39.958-53.287,39.252
		c-25.225-0.711-44.753-16.625-51.372-41.795C1245.323,367.19,1244.662,360.592,1244.532,353.08z M1332.499,353.138
		c-0.021-6.639-1.051-14.688-4.614-22.197c-5.555-11.702-14.69-18.299-27.827-18.431c-12.667-0.128-22.283,5.626-27.653,17.009
		c-7.816,16.569-7.789,33.492,0.476,49.959c5.313,10.585,14.475,15.833,26.236,16.024c11.731,0.191,20.85-4.801,26.917-14.979
		C1330.767,372.581,1332.334,363.82,1332.499,353.138z"/>
	<path fill-rule="evenodd" clip-rule="evenodd" fill="#484848" d="M1711.261,323.925c-6.789,0-13.055-0.043-19.319,0.03
		c-1.582,0.019-2.354-0.792-3.165-1.952c-8.678-12.409-34.502-13.625-45.099-7.109c-4.818,2.962-7.348,7.036-6.963,12.82
		c0.375,5.644,3.91,8.577,8.731,10.372c9.284,3.457,19.168,4.049,28.795,5.856c6.381,1.199,12.702,2.521,18.782,4.888
		c10.896,4.239,18.307,11.499,19.839,23.477c1.717,13.421-1.502,25.174-12.848,33.663c-8.724,6.527-18.825,8.966-29.497,9.364
		c-16.881,0.632-32.929-1.888-46.314-13.33c-6.438-5.504-10.959-12.274-12.901-21.37c7.097,0,13.708,0.027,20.318-0.019
		c1.618-0.012,2.301,1.013,3.04,2.159c4.113,6.377,10.223,9.867,17.369,11.701c8.685,2.228,17.491,2.567,26.194,0.364
		c6.599-1.671,12.017-5.012,13.2-12.58c1.251-7.999-1.598-12.848-9.345-15.236c-8.778-2.707-17.954-3.43-26.957-5.014
		c-7.718-1.358-15.244-3.226-22.404-6.575c-22.66-10.599-21.712-39.665-5.799-52.434c8.382-6.726,18.094-9.753,28.58-10.489
		c14.223-0.998,27.953,0.694,40.129,8.933C1703.506,306.774,1708.401,314.251,1711.261,323.925z"/>
	<path fill-rule="evenodd" clip-rule="evenodd" fill="#484848" d="M560.005,380.626c6.965,0,13.423,0.045,19.879-0.03
		c1.753-0.02,2.657,0.79,3.549,2.178c4.099,6.373,10.222,9.87,17.379,11.698c8.521,2.177,17.123,2.421,25.727,0.508
		c3.961-0.881,7.596-2.546,10.384-5.606c6.673-7.324,3.768-19.251-5.636-22.217c-10.514-3.315-21.599-3.87-32.354-6.077
		c-5.727-1.175-11.272-2.839-16.61-5.235c-24.297-10.907-22.592-41.268-5.371-53.847c7.913-5.78,16.826-8.524,26.453-9.401
		c11.98-1.091,23.627,0.156,34.649,5.205c11.242,5.149,18.337,13.87,22.002,26.128c-6.628,0-12.768-0.05-18.905,0.032
		c-1.702,0.022-2.692-0.635-3.654-1.999c-8.744-12.406-34.496-13.579-45.137-7.021c-4.653,2.867-7.214,6.887-6.971,12.375
		c0.254,5.742,3.824,8.971,8.914,10.816c9.313,3.377,19.185,4.028,28.819,5.828c6.222,1.163,12.38,2.47,18.32,4.734
		c11.102,4.233,18.659,11.521,20.233,23.738c1.682,13.061-1.426,24.551-12.194,33.01c-8.718,6.848-18.972,9.415-29.837,9.864
		c-16.52,0.683-32.251-1.658-45.659-12.432C566.961,397.23,562.622,390.437,560.005,380.626z"/>
	<path fill-rule="evenodd" clip-rule="evenodd" fill="#484848" d="M1826.495,323.923c-6.846,0-13.125-0.011-19.405,0.011
		c-1.073,0.004-1.789-0.351-2.496-1.238c-9.127-11.453-21.71-12.346-34.875-11.193c-3.828,0.335-7.524,1.427-10.838,3.497
		c-4.765,2.977-7.356,7.146-6.844,12.914c0.495,5.567,4.113,8.492,8.955,10.245c9.311,3.372,19.181,4.035,28.818,5.809
		c8.207,1.509,16.361,3.192,23.734,7.28c9.097,5.043,14.487,12.462,14.479,23.289c-0.019,24.004-10.745,36.683-34.981,40.144
		c-13.851,1.978-27.635,1.03-40.685-4.677c-12.158-5.317-21.022-13.869-25.172-26.774c-0.192-0.598-0.148-1.271-0.285-2.583
		c6.973,0,13.723,0.001,20.472,0c1.663-0.001,2.121,1.391,2.843,2.465c2.274,3.383,5.152,6.146,8.786,7.977
		c12.038,6.063,24.569,6.732,37.331,2.834c4.607-1.407,8.211-4.323,9.889-9.146c2.844-8.178-0.418-15.229-8.645-17.72
		c-10.547-3.193-21.611-3.805-32.359-6.035c-6.212-1.289-12.26-3.061-17.908-6.014c-18.141-9.482-22.333-33.246-8.595-48.462
		c4.818-5.337,10.728-9.027,17.495-11.124c15.983-4.951,31.929-4.532,47.4,1.914
		C1815.301,302.207,1822.913,310.979,1826.495,323.923z"/>
	<path fill-rule="evenodd" clip-rule="evenodd" fill="#484848" d="M1472.976,412.502c-7.632,0-14.557,0-21.951,0
		c0-2.046,0.001-3.835,0-5.624c-0.01-20.328-0.049-40.656-0.004-60.983c0.009-3.866-0.464-7.666-1.313-11.39
		c-3.489-15.296-14.376-22.789-31.091-21.563c-14.214,1.043-24.903,11.601-25.476,27.219c-0.805,21.965-0.424,43.974-0.547,65.963
		c-0.011,1.973-0.001,3.945-0.001,6.277c-7.274,0-14.155,0-21.354,0c0-38.913,0-77.787,0-116.913c6.956,0,13.732,0,21.23,0
		c0,5.621,0,11.286,0,16.951c6.63-9.06,14.35-15.747,25.034-18.416c26.449-6.608,50.538,9.933,54.557,37.228
		c1.174,7.976,0.871,15.956,0.896,23.942C1473.017,374.166,1472.976,393.141,1472.976,412.502z"/>
	<path fill-rule="evenodd" clip-rule="evenodd" fill="#484848" d="M900.78,412.486c-7.409,0-14.334,0-21.72,0
		c0-4.224,0-8.184-0.001-12.145c0-17.666-0.022-35.333,0.014-52.999c0.011-5.195-0.481-10.304-2.007-15.287
		c-3.766-12.306-12.552-18.944-25.459-19.239c-14.134-0.323-24.231,6.092-28.528,18.177c-1.922,5.405-2.42,11.025-2.413,16.726
		c0.025,19.666,0.01,39.332,0.01,58.998c0,1.802,0,3.604,0,5.719c-7.345,0-14.238,0-21.424,0c0-38.979,0-77.86,0-116.971
		c7.031,0,13.814,0,21.296,0c0,5.658,0,11.33,0,17.316c0.949-0.461,1.298-0.515,1.438-0.714
		c11.733-16.735,26.283-22.454,45.843-17.997c16.798,3.827,29.093,17.682,32.109,36.203c0.321,1.973,0.803,3.957,0.807,5.938
		C900.799,361.52,900.78,386.828,900.78,412.486z"/>
	<path fill-rule="evenodd" clip-rule="evenodd" fill="#484848" d="M726.55,381.393c10.916-27.379,21.773-54.358,32.354-81.445
		c1.47-3.764,3.282-5.082,7.245-4.803c5.3,0.372,10.646,0.092,16.886,0.092c-22.509,56.21-44.826,111.941-67.137,167.657
		c-7.107,0-13.924,0-20.745,0c-0.84-2.082,0.534-3.616,1.158-5.211c5.573-14.238,11.169-28.47,16.96-42.62
		c1.219-2.979,1.258-5.413,0.006-8.442c-14.601-35.328-29.043-70.722-43.52-106.1c-0.615-1.503-1.166-3.031-2.024-5.273
		c7.613,0,14.682,0.015,21.75-0.007c2.856-0.009,2.83,2.482,3.505,4.165c10.34,25.757,20.604,51.543,30.903,77.316
		C724.489,378.217,724.686,379.944,726.55,381.393z"/>
	<path fill-rule="evenodd" clip-rule="evenodd" fill="#484848" d="M1020.833,377.815c-1.724,16.124-17.354,32.142-34.887,36.152
		c-31.049,7.104-58.988-11.222-65.801-43.363c-3.824-18.04-2.091-35.515,7.066-51.761c14.448-25.633,46.335-34.41,71.818-19.845
		c11.93,6.818,18.804,17.421,22.357,31.176c-6.841,0-13.136-0.048-19.43,0.028c-1.954,0.023-2.427-1.375-3.177-2.65
		c-6.346-10.798-15.99-15.919-28.293-15.259c-12.694,0.682-20.845,8.274-25.403,19.559c-6.351,15.718-6.187,31.595,1.289,46.934
		c5.016,10.291,13.335,16.695,25.13,16.978c11.859,0.283,21.416-4.398,27.304-15.108c1.24-2.257,2.637-2.96,5.078-2.891
		C1009.519,377.924,1015.159,377.815,1020.833,377.815z"/>
	<path fill-rule="evenodd" clip-rule="evenodd" fill="#484848" d="M1184.395,412.55c-7.388,0-14.157,0-21.241,0
		c0-39.087,0-77.96,0-117.073c7.019,0,13.796,0,21.073,0c0,5.969,0,11.907,0,17.845c13.616-20.462,34.237-19.236,55.028-18.908
		c0,7.046,0,13.938,0,21.593c-4.427,0-9.007,0.063-13.584-0.015c-7.189-0.12-14.33,0.252-21.31,2.104
		c-11.875,3.15-18.746,10.678-19.463,22.979c-1.271,21.798-0.263,43.644-0.501,65.467
		C1184.376,408.499,1184.395,410.457,1184.395,412.55z"/>
	<path fill-rule="evenodd" clip-rule="evenodd" fill="#0239B7" d="M258.862,430.53c3.312,11.768,6.73,23.506,9.909,35.31
		c4.253,15.794,8.28,31.648,12.522,47.445c0.484,1.804,0.714,3.552,0.731,5.374c-25.328-6.726-50.668-13.408-75.978-20.206
		c-6.596-1.772-8.625-7.017-4.211-11.438C220.735,468.078,239.835,449.341,258.862,430.53z"/>
</g>
</svg>
