<?xml version="1.0" encoding="UTF-8"?>
<svg width="80px" height="80px" viewBox="0 0 80 80" version="1.1" xmlns="http://www.w3.org/2000/svg" xmlns:xlink="http://www.w3.org/1999/xlink">
    <!-- Generator: Sketch 46.2 (44496) - http://www.bohemiancoding.com/sketch -->
    <title>Pie-Icon</title>
    <desc>Created with Sketch.</desc>
    <defs></defs>
    <g id="Global-Filters" stroke="none" stroke-width="1" fill="none" fill-rule="evenodd">
        <g id="Pie-Icon" fill-rule="nonzero" fill="#757575">
            <g id="pie-chart-6" transform="translate(8.000000, 8.000000)">
                <path d="M4.66111294,38.5518048 L32.4483752,38.5518048 C33.5132965,38.5518048 34.5662652,38.2696483 35.50009,37.7331823 L59.5800273,23.8295696 C60.4781216,26.6150223 60.9310469,29.4959682 60.9310469,32.448248 C60.9310469,48.1518639 48.151991,60.9309197 32.4483752,60.9309197 C18.9342375,60.9310469 7.47441254,51.3983799 4.66111294,38.5518048 L4.66111294,38.5518048 Z M0,34.4828517 C1.05703772,51.5096403 15.1592663,65 32.4483752,65 C50.4248828,65 65,50.4248828 65,32.4483752 C65,27.2429126 63.7482883,22.3435116 61.5747044,17.9805766 L33.4656134,34.208706 C33.1477265,34.3915546 32.7980508,34.4828517 32.4483752,34.4828517 L0,34.4828517 L0,34.4828517 Z M0,30.4138986 L30.4138986,30.4138986 L30.4138986,0 C14.066498,1.01329648 1.01329648,14.066498 0,30.4138986 Z M4.66505474,26.3449455 C7.0293708,15.5407306 15.5407306,7.0293708 26.3449455,4.66505474 L26.3449455,26.3449455 L4.66505474,26.3449455 Z M38.5518048,4.65310219 C44.3294639,5.90087209 49.5149632,8.88494057 53.4885502,13.2558863 L38.5518048,21.8786337 L38.5518048,4.65310219 L38.5518048,4.65310219 Z M34.4828517,0 L34.4828517,28.9237717 L59.5601912,14.4479624 C54.0805829,6.2107483 44.9492163,0.647726472 34.4828517,0 L34.4828517,0 Z" id="Shape"></path>
            </g>
        </g>
    </g>
</svg>