<svg xmlns="http://www.w3.org/2000/svg" width="60" height="60" viewBox="0 0 60 60">
    <g fill="currentColor" fill-rule="evenodd">
        <path stroke="currentColor" d="M30.534 29.668c-.508-.259-.72-.906-1.492-.75-.524.108-1.714.139-2.098.53-.57.581-1.94 2.97-1.643 3.88.12.37.386.786.54 1.102.196.399 1.504 1.215 2.033 1.035.345-.117.95-.507 1.341-.308.214.109.305.421.454.573.366.373.138 1.273.368 1.741.052.107.189.52.13.64-.187.38-.448.761-.346 1.278.113.578.592 1.046.692 1.653.055.34.225 1.636.519 1.786 1.49.76 2.756-1.223 3.525-2.006.259-.264-.145-1.139.021-1.477.215-.438.658-.755.8-1.19.038-.116-.397-.59-.475-.75-.212-.432 1.089-1.675 1.21-1.675.356-.022.87-1.848.714-2.006-.322-.329-1.286.21-1.665-.176-.784-.8-1.135-2.987-1.773-3.637-.125-.128-1.138-.157-1.34-.199-.4 0-1.16.137-1.515-.044zM36.57 37.485c-.913.32-1.072 2.258-.464 2.897.066.07.29-.828.337-.929.263-.552.711-1.507.126-1.968z"/>
        <path fill="currentColor" d="M27.708 22.537c-.795-.262-.109.783-.109 1.139 0 .15-.288.64-.174.752.022.022 1.281-.412.958-.73-.259-.257-.512-.78-.675-1.161zM26.896 23.86c-.138-.468-.419.239-.357.517.079.357.505.317.357-.517z"/>
        <path fill="currentColor" d="M27.657 25.072c-.065.26.11 1.03-.044 1.186-.445.451-.854-.513-1.127.592-.266 1.08 1.024 1.202 1.604.615.404-.41-.195-.988.78-1.317.547-.185.872.338 1.3.483.46.155.673-.22.997-.11.554.187 1.058.694 1.647.395.279-.141.035-.78.325-.878.232-.078.978.017 1.084-.197.267-.543-1.236-.724-.932-1.032.423-.429 1.215-.837 1.517-1.449.255-.516.118-1.14.26-1.712.047-.193.182-.728.086-.922-.162-.329-1.137-.546-1.495-.636-1.127-.286-1.864-.713-3.055-.11-.258.13-.478 1.12-.672 1.383-.414.558-1.132.516-.694 1.405.045.09-.024.305.044.373.187.19.62-.229.672-.176.215.218-.297.417.346.417.188 0 .547.06.65-.044.071-.071.092-.47.152-.592.04-.083.368-.198.282-.374-.117-.237-.295-.408-.217-.724.039-.157.632-.787.867-.549.278.282-.484.638-.369.988.106.32.813.164.716.659-.206 1.04-2.142.996-2.774 1.317-.111.056-.531-.033-.585.022-.12.121-.002.487-.087.658-.016.032-1.06.318-1.278.33z"/>
        <path stroke="currentColor" d="M35.979 24.004c-.19.387-.956.415-1.122.752-.06.124.4.355.46.415.274.28 1.017 1.225.815 1.842-.104.318-2.643-.01-2.294.7.271.552 1.195.075 1.504.389.226.23-.277 1.326-.026 1.582.936.952.503 3.077 2.37 2.697.763-.155 1.023-.47 1.505-.96.337-.343.078-1.615 1.096-1.27 1.52.515 1.3 1.271 1.911 2.515.144.293.094.782.3.984.207.202.59-1.418.72-1.684.328-.667.918-.882 1.427-1.4.035-.036.133.031.153.052.422.428.316 1.203.714 1.608.471.48 1.259.476 1.708.933.17.026.323.303.51.208.01-.006 0-.18 0-.182 0-.514-.437-1.317-.205-1.79.138-.279.563-.269.816-.44.713-.484 1.296-1.06 1.835-1.608.37-.377-.061-1.567-.331-1.841-.01-.01-.092-.166-.051-.208.407-.414 1.205.694 1.376.519.184-.188-.131-.611.153-.804.435-.295 1.065-.357 1.428-.726.208-.212.277-.764.56-.908.157-.08.5-.12.638-.26.401-.408-.6-.857-.74-1.14-.262-.536.34-.888.714-1.142.527-.357 1.05-.06 1.632-.207.207-.053 1.505-.54 1.554-.39.123.374-.52.482-.739.65-.514.391-.592 1.186-.127 1.659.138.14.937-1.158 1.02-1.297.122-.207.33-.451.33-.674 0-.044.007-.081.052-.104.467-.237 3.12-1.437 3.288-1.608.177-.18-.321-.763-.46-.622-.286.291-1.714.167-2.09.104-1.61-.274-3.16-.737-4.766-1.064-1.445-.294-2.85-.544-4.333-.544-.149 0-1.39.127-1.453 0-.11-.226.688-.366.561-.752-.094-.289-1.397-.573-1.708-.467-1.398.474-2.806 1.374-4.358 1.374-.426 0-1.124-.245-1.453-.078-.524.267-.813.682-1.479.908-1.092.37-2.048.088-2.829.882.308 1.252-.135 2.479-.586 3.397z"/>
        <path fill="currentColor" stroke="currentColor" stroke-width=".5" d="M53.14 26.202c-.615.21-.79.972-1.032 1.468-.233.476-.813.622-1.208.824-.136.07-.03.435.076.49.359.183.616-.329.88-.464 1.19-.61 1.06-1.022 1.283-2.318z"/>
        <path fill="currentColor" d="M50.425 37.728c-.468 1.193-2.163.92-2.661 1.938-.117.238-.102.63-.102.904 0 .246-.024.496.05.724.68 2.08 2.225-.519 3.346-.233.813.207 1.825 2.08 2.814 1.577.486-.249.339-.945.456-1.422.066-.27.596-.826.456-1.11-.23-.469-.993-.604-1.242-1.112-.353-.72-.483-1.396-1.242-1.783-.438-.223-1.462.393-1.875.517z"/>
        <path stroke="currentColor" d="M16.503 33.73c-.294 0-.914-.02-1.04.237-.09.183-.005.871-.116.984-.405.414-.706 1.102-.885 1.653-.072.22.604 2.507.731 2.637.204.208.596.295.81.512.283.29.166 1.733.038 2.126-.164.502.071 1.231-.154 1.692-.652 1.332-.604 3.766.654 4.409.35.179.154-1.334.154-1.535 0-.9.397-1.587.924-2.126.452-.461 1.54-.707 1.849-1.338.222-.454.615-1.77.886-2.047.352-.36.866-.413 1.155-.709.207-.211-.116-.944.077-1.141.265-.271 1.07-.96.732-1.653-.345-.705-1.079-.197-1.58-.709-.868-.888-1.748-2.134-2.81-2.677-.419-.213-.938-.088-1.425-.315zM18.609 15.231c0 1.015-2.25 1.856-1.89 2.589.214.433 1.021-.139 1.311.156.498.507.48 1.47.887 1.883.177.18.647-.096.81.235.377.767-.642 1.269.77 2.706.134.136.43-.56.463-.628.188-.382.657-1 1.003-1.176.68-.346 1.972-.752 2.428-1.216.547-.556.116-1.961.424-2.588.155-.314 1.206-.999.964-1.49-.232-.473-1.38-.145-1.889-.274-1.557-.397-3.73-.627-5.281-.197z"/>
        <path fill="currentColor" d="M11.477 15.745c.897-.248 2.353.276 3.13-.117.193-.098.765-.274.966-.274.31 0 1.02-.376 1.313-.078.098.099-.142.287-.154.313-.306.62-.854 1.258-1.16 1.877-.137.278-.733.203-.733.43 0 .079.006.17.038.234.455.92 1.655 1.323 2.357 2.034.05.05-.018.272-.038.312-.396.8-.098 1.835.193 2.425.214.433.998.697 1.352 1.055.187.19-.069.712.116.9.078.078.545.383.425.625-.036.074-.113.079-.193.079-.944 0-.576-.307-.85-.86-.076-.154-1.121.039-1.198.117-.351.355.947.586.696 1.094-.251.508-1.136-.32-1.469.352-.327.662-.631 1.578-1.159 2.112-.128.13-.438-.026-.58.117-.294.298.34 1.299.039 1.603-.082.084-.209-.133-.232-.156-.398-.403-.278-.59-.889-.9-.079-.04-.509.303-.656.352-.742.25-1.276-.004-1.276.9 0 .343.073 1.014.387 1.173.541.274.54-.874 1.16-.665.544.184.113.894.308 1.29.207.418.546-.073.812.196.192.194-.287.491-.078.704.175.177 1.272.433 1.082.625-.393.398-1.628-.765-1.739-.82-.232-.119-2.76-1.152-2.782-1.174-.49-.495-.483-1.427-1.043-1.994-.022-.022-.331-.447-.386-.391-.117.118.296.807.154 1.095-.027.055-1.3-.754-1.43-1.017-.574-1.162-.792-2.952-1.506-3.675-.213-.215.42-.552.231-.743-.148-.15-.595-.016-.734-.157-1.03-1.042-1.104-1.892-2.589-2.267-.927-.235-1.859 1.053-2.086.938-.28-.142-1.046-.946-1.16-1.29-.118-.36.493-.372.348-.665-.14-.285-.6-.897-.425-1.251.07-.143.087-.748.232-.821 1.43-.724 3.37.848 4.869.469.191-.049 2.018-1.964 2.318-2.268.19-.193 1.158.146 1.353.195.923.234 2.432.785 3.168.04.294-.298-.502-1.717-.502-2.073zm1.968 5.622c-.276.093-.51.594-.651.737-.216.219-.831.066-1.034.271-.01.01 0 .026 0 .04 0 .44 1.736.633 2.106 1.008.34.345.364 1.232.842 1.474.276.14.088-.722.153-.853.108-.219.538-.926.46-1.164-.057-.171-.005-.041-.077-.078-.771-.39-1.119-.899-1.8-1.435z"/>
        <path fill="currentColor" stroke="currentColor" stroke-width=".5" d="M14.139 30.7c.61.155.478.484.816.824.037.038 1.27.17 1.282.157.25-.252-.6-.584-.66-.706-.073-.147.002-.999-.117-1.059-.16-.08-.215.57-.272.628-.078.079-.939.126-1.05.157z"/>
        <path fill="currentColor" stroke="currentColor" stroke-width=".5" d="M41.784 34.038c-.024-.092.039-.24.124-.24.086 0 .155.269.076.3-.079.032-.176.033-.2-.06z"/>
        <path fill="currentColor" fill-rule="nonzero" d="M.547 59.222H60v1H0V60.2h-.453V.2h1v59.022z"/>
    </g>
</svg>
