<?xml version="1.0" encoding="UTF-8"?>
<svg width="48px" height="48px" viewBox="0 0 80 80" version="1.1" xmlns="http://www.w3.org/2000/svg" xmlns:xlink="http://www.w3.org/1999/xlink">
    <!-- Generator: Sketch 45 (43475) - http://www.bohemiancoding.com/sketch -->
    <title>Line-Icon</title>
    <desc>Created with Sketch.</desc>
    <defs></defs>
    <g id="Global-Filters" stroke="none" stroke-width="1" fill-rule="evenodd">
        <g id="Line-Icon">
            <g id="Group-19">
                <rect id="Rectangle-19" x="0" y="76" width="80" height="4" rx="2"></rect>
                <rect id="Rectangle-19-Copy-3" x="0" y="0" width="4" height="80" rx="2"></rect>
            </g>
            <path d="M24.0052788,43.4420686 L32.6447728,53.8597583 L32.6447728,53.8597583 C33.7024338,55.1351089 35.5937134,55.3115812 36.869064,54.2539202 C37.2408237,53.9456162 37.5326531,53.5521144 37.7197488,53.1068596 L48.5839642,27.2519479 L48.5839642,27.2519479 C48.7979131,26.7427875 49.384109,26.5034712 49.8932694,26.71742 C50.0364811,26.7775975 50.163704,26.8703116 50.2648507,26.988211 L59.4219778,37.6620117 L59.4219778,37.6620117 C60.500798,38.9195144 62.3947619,39.0643652 63.6522645,37.985545 C64.013399,37.6757253 64.2956588,37.284448 64.4757389,36.8440193 L75.5914318,9.6579617 L75.5914318,9.6579617 C76.0094688,8.63555334 75.519529,7.46784167 74.4971207,7.04980469 L74.4971207,7.04980469 L74.4971207,7.04980469 C73.4747123,6.63176771 72.3070006,7.12170752 71.8889636,8.14411588 L61.3925008,33.8156998 L51.192973,21.9268478 L51.192973,21.9268478 C50.1141528,20.6693452 48.2201889,20.5244944 46.9626863,21.6033146 C46.6089881,21.9067547 46.3308459,22.2884235 46.1503135,22.7180586 L35.3098474,48.5164512 L35.3098474,48.5164512 C35.0958986,49.0256116 34.5097027,49.2649279 34.0005423,49.050979 C33.852124,48.9886138 33.7209567,48.8913373 33.6181887,48.7674174 L24.920439,38.2794817 L24.920439,38.2794817 C23.862778,37.004131 21.9714984,36.8276587 20.6961478,37.8853197 C20.3055957,38.2092084 20.0035706,38.6268604 19.8183205,39.0992132 L8.67549853,67.5112982 L8.67549853,67.5112982 C8.27220801,68.5396127 8.77889,69.7001578 9.80720441,70.1034483 L9.80720441,70.1034483 L9.80720441,70.1034483 C10.8355188,70.5067388 11.9960639,70.0000568 12.3993544,68.9717424 L22.3045726,43.7153125 L22.3045726,43.7153125 C22.5062179,43.2011553 23.0864904,42.9478143 23.6006476,43.1494595 C23.7580986,43.2112096 23.8973159,43.3118846 24.0052788,43.4420686 Z" id="Path-4" fill-rule="nonzero"></path>
        </g>
    </g>
</svg>
